<svg xmlns="http://www.w3.org/2000/svg" width="113.5" height="112.519" viewBox="0 0 113.5 112.519">
  <g id="noun-bus-3675083" transform="translate(-114.048 -46.866)">
    <path id="Path_19481" data-name="Path 19481" d="M115.9,95.273h2.993a12.1,12.1,0,0,0,5.907,8.875c.832.5,1.665.969,2.51,1.454l.456.27v30.3a8.9,8.9,0,0,0,5.437,8.2v9.952a4.8,4.8,0,0,0,4.792,4.808h6.4a4.8,4.8,0,0,0,4.792-4.808v-9.252h42.728v9.252a4.8,4.8,0,0,0,4.792,4.808h6.4a4.8,4.8,0,0,0,4.792-4.808v-9.952a8.91,8.91,0,0,0,5.437-8.2V106.168l2.376-1.373,1.114-.646a12.206,12.206,0,0,0,5.907-8.875H225.7a1.6,1.6,0,0,0,1.6-1.6V74.923a1.6,1.6,0,0,0-1.6-1.6h-8.954a1.6,1.6,0,0,0-1.6,1.6V93.67a1.6,1.6,0,0,0,1.6,1.6h2.7a8.925,8.925,0,0,1-4.215,6.115l-1.1.633c-.269.148-.523.31-.792.457V59.838a8.9,8.9,0,0,0-6.819-8.673,162.464,162.464,0,0,0-71.924,0,8.9,8.9,0,0,0-6.819,8.673v42.327c-.456-.256-.913-.525-1.369-.795a8.926,8.926,0,0,1-4.215-6.115h2.672a1.6,1.6,0,0,0,1.6-1.6V74.921a1.6,1.6,0,0,0-1.6-1.6H115.9a1.6,1.6,0,0,0-1.6,1.6V93.668a1.621,1.621,0,0,0,1.6,1.6Zm102.436-3.205V76.513H224.1V92.068h-2.792c-.027,0-.04-.013-.067-.013s-.04.013-.067.013ZM145.99,154.329a1.618,1.618,0,0,1-1.611,1.616h-6.4a1.618,1.618,0,0,1-1.611-1.616v-9.252h9.611v9.252Zm58.716,0a1.618,1.618,0,0,1-1.611,1.616h-6.4a1.618,1.618,0,0,1-1.611-1.616v-9.252h9.611v9.252Zm5.437-56.778c-4.443,1.118-8.9,1.979-13.37,2.72L188.544,83.1V74.926a1.6,1.6,0,1,0-3.195,0v17.09a1.6,1.6,0,1,0,3.195,0V90.48l4.926,10.3a160.27,160.27,0,0,1-21.343,1.683V58.4a161.522,161.522,0,0,1,38,4.942V97.551Zm-79.2-37.709a5.676,5.676,0,0,1,4.336-5.548,159.558,159.558,0,0,1,70.527,0,5.676,5.676,0,0,1,4.336,5.548V60.1a162.763,162.763,0,0,0-79.185,0v-.256Zm0,3.5a161.468,161.468,0,0,1,38-4.942v44.065a159.167,159.167,0,0,1-20.981-1.616l4.953-10.356V92a1.6,1.6,0,1,0,3.195,0V74.926a1.6,1.6,0,1,0-3.195,0v8.188l-8.242,17.225c-4.578-.754-9.155-1.63-13.718-2.774V63.343Zm0,37.454a164.79,164.79,0,0,0,39.6,4.916,164.877,164.877,0,0,0,39.6-4.916v35.379a5.7,5.7,0,0,1-5.691,5.71H136.636a5.7,5.7,0,0,1-5.691-5.71Zm-13.45-24.282h5.772V92.07h-2.832c-.027,0-.04-.013-.067-.013s-.04.013-.067.013h-2.819V76.515Z" fill="#fff" stroke="#fff" stroke-width="0.5"/>
    <path id="Path_19483" data-name="Path 19483" d="M205.449,365.158A6.653,6.653,0,1,0,198.8,358.5,6.668,6.668,0,0,0,205.449,365.158Zm0-10.114A3.454,3.454,0,1,1,202,358.492,3.455,3.455,0,0,1,205.449,355.044Z" transform="translate(-64.252 -231.435)" fill="#fff" stroke="#fff" stroke-width="0.5"/>
    <path id="Path_19484" data-name="Path 19484" d="M450.4,365.158a6.653,6.653,0,1,0-6.653-6.653A6.668,6.668,0,0,0,450.4,365.158Zm0-10.114a3.454,3.454,0,1,1-3.448,3.448A3.455,3.455,0,0,1,450.4,355.044Z" transform="translate(-250.511 -231.435)" fill="#fff" stroke="#fff" stroke-width="0.5"/>
  </g>
</svg>
