<svg xmlns="http://www.w3.org/2000/svg" width="92.864" height="112.8" viewBox="0 0 92.864 112.8">
  <g id="noun-career-1393697" transform="translate(-159.655 -46.221)">
    <path id="Path_19320" data-name="Path 19320" d="M185.62,265.043l-10.415-4.928-5.489,11.939h-3.8a5.8,5.8,0,0,0,0,11.6h6.787a6.824,6.824,0,0,0,6.182-3.965Zm-9.284,13.439a4,4,0,0,1-3.64,2.329H165.92a3,3,0,0,1,0-6h4.95a1,1,0,0,0,.906-.582l4.794-10.371,5.354,2.531-3.9,8.467Z" transform="translate(0 -162.26)" fill="#fff" stroke="#fff" stroke-width="0.8"/>
    <path id="Path_19321" data-name="Path 19321" d="M312.713,64.83a9.105,9.105,0,1,0-6.435-2.663,9.107,9.107,0,0,0,6.435,2.663Zm0-15.3a6.2,6.2,0,1,1-4.387,1.817A6.206,6.206,0,0,1,312.713,49.533Z" transform="translate(-108.646)" fill="#fff" stroke="#fff" stroke-width="0.8"/>
    <path id="Path_19322" data-name="Path 19322" d="M187.565,144.273a5.465,5.465,0,0,0,4.479-2.24l.19-.247,3.214-7.044h5.375L195.3,146.8a6.909,6.909,0,0,0,3.2,9.026l16.183,7.895v16.53a5.773,5.773,0,1,0,11.546,0V160a6.057,6.057,0,0,0-3.36-5.421l-11.4-5.6,3.684-8.052,1.949,1.971h0a6.72,6.72,0,0,0,4.782,2.005h5.23a5.835,5.835,0,0,0,5.846-5.6,5.9,5.9,0,0,0-1.59-4.311,5.769,5.769,0,0,0-4.177-1.8h-3.36l-5.051-5.062a3.786,3.786,0,0,0-1.053-.739l-8.433-3.919a3.771,3.771,0,0,0-1.6-.359h-17.09a3.9,3.9,0,0,0-3.527,2.24l-5.6,12.319h0a3.742,3.742,0,0,0,.337,3.595,7.169,7.169,0,0,0,5.745,3.013Zm-3.527-5.42,5.6-12.319h0a1.119,1.119,0,0,1,1-.65H207.7a.976.976,0,0,1,.426.1l8.4,4a.978.978,0,0,1,.279.19l5.6,5.6h0a.989.989,0,0,0,.694.292h4.077a3,3,0,0,1,2.979,3.169,3.058,3.058,0,0,1-3.069,2.878h-5.219a3.953,3.953,0,0,1-2.81-1.176l-3.763-3.808h0a.985.985,0,0,0-1.6.291l-5.5,12.028a1.009,1.009,0,0,0,.471,1.333l13.024,6.338a3.2,3.2,0,0,1,1.791,2.89v20.27a2.979,2.979,0,1,1-5.957,0V162.593a1.007,1.007,0,0,0-.56-.906l-11.691-5.712-5.488-2.688h0a4.056,4.056,0,0,1-1.881-5.32l.93-2.038,5.734-12.565h0a1.009,1.009,0,0,0-.907-1.433h-9.373a1,1,0,0,0-.907.583l-3.561,7.84c-1.971,2.62-6.417-.124-5.79-1.5Z" transform="translate(-16.001 -58.13)" fill="#fff" stroke="#fff" stroke-width="0.8"/>
    <path id="Path_19323" data-name="Path 19323" d="M298.15,245v19.6h-22.4v16.8h-19.6V301h-19.6v8.4h72.792V245Zm8.4,61.595H239.355v-2.8h19.6V284.2h19.6V267.4h22.4V247.8h5.6Z" transform="translate(-57.229 -150.773)" fill="#fff" stroke="#fff" stroke-width="0.8"/>
  </g>
</svg>
