<svg xmlns="http://www.w3.org/2000/svg" width="119.852" height="122.666" viewBox="0 0 119.852 122.666">
  <g id="noun-gaming-5017717" transform="translate(-126.905 -45.416)">
    <path id="Path_19363" data-name="Path 19363" d="M214.54,105.127h-24.63V102.05a15.39,15.39,0,0,0-15.395-15.385H156.041a9.231,9.231,0,1,1,0-18.461H217.62a15.39,15.39,0,0,0,15.394-15.384V46.666h-6.157v6.153a9.234,9.234,0,0,1-9.237,9.231H156.041a15.385,15.385,0,1,0,0,30.77h18.473a9.232,9.232,0,0,1,9.237,9.231v3.077H159.12a30.771,30.771,0,1,0,18.474,55.385h18.473a30.777,30.777,0,1,0,18.474-55.385Zm0,55.384a24.2,24.2,0,0,1-15.394-5.477,3.081,3.081,0,0,0-1.94-.677H176.577a3.077,3.077,0,0,0-1.939.677,24.21,24.21,0,0,1-15.518,5.477,24.615,24.615,0,1,1,0-49.23H214.54a24.615,24.615,0,1,1,0,49.23Z" transform="translate(0)" fill="#fff" stroke="#eb4c4b" stroke-width="2.5"/>
    <path id="Path_19364" data-name="Path 19364" d="M446.731,342.945a4.615,4.615,0,1,1-4.615-4.615,4.615,4.615,0,0,1,4.615,4.615" transform="translate(-227.574 -214.742)" fill="#fff" stroke="#eb4c4b" stroke-width="2.5"/>
    <path id="Path_19365" data-name="Path 19365" d="M411.731,372.115a4.615,4.615,0,1,1-4.615-4.615,4.616,4.616,0,0,1,4.615,4.615" transform="translate(-201.811 -236.219)" fill="#fff" stroke="#eb4c4b" stroke-width="2.5"/>
    <path id="Path_19366" data-name="Path 19366" d="M481.731,372.115a4.615,4.615,0,1,1-4.615-4.615,4.616,4.616,0,0,1,4.615,4.615" transform="translate(-253.325 -236.219)" fill="#fff" stroke="#eb4c4b" stroke-width="2.5"/>
    <path id="Path_19367" data-name="Path 19367" d="M446.731,401.285a4.615,4.615,0,1,1-4.615-4.615,4.616,4.616,0,0,1,4.615,4.615" transform="translate(-227.574 -257.696)" fill="#fff" stroke="#eb4c4b" stroke-width="2.5"/>
    <path id="Path_19368" data-name="Path 19368" d="M219.871,347.561h-6.153v-6.153a3.077,3.077,0,0,0-6.155,0v6.153h-6.153a3.077,3.077,0,1,0,0,6.155h6.153v6.153a3.077,3.077,0,0,0,6.155,0v-6.153h6.153a3.077,3.077,0,1,0,0-6.155Z" transform="translate(-51.524 -214.742)" fill="#fff" stroke="#eb4c4b" stroke-width="2.5"/>
    <path id="Path_19369" data-name="Path 19369" d="M338.973,332.821a6.153,6.153,0,1,1-6.154-6.153,6.153,6.153,0,0,1,6.154,6.153" transform="translate(-145.99 -206.156)" fill="#fff" stroke="#eb4c4b" stroke-width="2.5"/>
  </g>
</svg>
