<svg xmlns="http://www.w3.org/2000/svg" width="52.104" height="40.1" viewBox="0 0 52.104 40.1">
  <g id="noun-interview-2315139" transform="translate(-76.169 -69.73)">
    <path id="Path_19529" data-name="Path 19529" d="M91.967,224.342l-2.772-.438-.709-7.607a6.139,6.139,0,1,0-12.255.771l.75,7.982a6.112,6.112,0,0,0,3.939,5.356,3.83,3.83,0,0,0,1.917.4l5.815.271a1.054,1.054,0,1,0,.1-2.1L82.88,228.7h-.1a1.706,1.706,0,0,1-.959-.208l-.125-.063a4.024,4.024,0,0,1-2.626-3.585l-.729-7.94a4.039,4.039,0,1,1,8.065-.459l.75,7.982v.354a1.056,1.056,0,0,0,.9,1.063l3.606.563a.877.877,0,0,1,.75.875v8.837a1.045,1.045,0,0,0,1.042,1.042,1.059,1.059,0,0,0,1.042-1.042V227.3a2.946,2.946,0,0,0-2.522-2.959Z" transform="translate(0 -127.38)" fill="#eb4c4b" stroke="#fff" stroke-width="0.1"/>
    <path id="Path_19530" data-name="Path 19530" d="M92.342,80.784a5.5,5.5,0,1,0-5.5-5.5A5.51,5.51,0,0,0,92.342,80.784Zm0-8.9a3.4,3.4,0,1,1-3.4,3.4A3.4,3.4,0,0,1,92.342,71.885Z" transform="translate(-9.608)" fill="#eb4c4b" stroke="#fff" stroke-width="0.1"/>
    <path id="Path_19531" data-name="Path 19531" d="M444.138,210.548a6.144,6.144,0,0,0-6.5,5.71l-.729,7.649-2.772.438a3,3,0,0,0-2.543,2.959v8.816a1.045,1.045,0,0,0,1.042,1.042,1.059,1.059,0,0,0,1.042-1.042V227.3a.877.877,0,0,1,.75-.875l3.606-.563a1.074,1.074,0,0,0,.9-1.063v-.313l.75-8.045a4.039,4.039,0,0,1,8.065.438l-.75,8.045a4.048,4.048,0,0,1-2.626,3.543l-.125.063a1.853,1.853,0,0,1-.959.208h-.1l-5.877.271a1.054,1.054,0,0,0,.1,2.1l5.815-.271a4.016,4.016,0,0,0,1.917-.4,6.132,6.132,0,0,0,3.939-5.335l.75-8.045a6.052,6.052,0,0,0-5.69-6.523Z" transform="translate(-321.627 -127.382)" fill="#eb4c4b" stroke="#fff" stroke-width="0.1"/>
    <path id="Path_19532" data-name="Path 19532" d="M503.162,80.784a5.5,5.5,0,1,0-5.5-5.5A5.51,5.51,0,0,0,503.162,80.784Zm0-8.9a3.4,3.4,0,1,1-3.4,3.4A3.4,3.4,0,0,1,503.162,71.885Z" transform="translate(-381.401)" fill="#eb4c4b" stroke="#fff" stroke-width="0.1"/>
    <path id="Path_19533" data-name="Path 19533" d="M246.044,279.238h17.923a1.042,1.042,0,0,0,0-2.084H246.044A1.045,1.045,0,0,0,245,278.2,1.032,1.032,0,0,0,246.044,279.238Z" transform="translate(-152.758 -187.636)" fill="#eb4c4b" stroke="#fff" stroke-width="0.1"/>
  </g>
</svg>
