<svg xmlns="http://www.w3.org/2000/svg" width="428" height="428" viewBox="0 0 428 428">
  <path id="pegged" d="M301.2,261.75a12.25,12.25,0,1,1,17.57-17.07,45.015,45.015,0,0,0,32.906,11.363c15.855,0,24.348-5.992,24.348-16.984a15.19,15.19,0,0,0-4.246-11.6,20.406,20.406,0,0,0-12.176-4.812L343,220.329a46.609,46.609,0,0,1-26.656-11.418,36.307,36.307,0,0,1-9.859-27.031,39.86,39.86,0,0,1,34.312-40.238l-.047-14.238,0,0a11.786,11.786,0,0,1,11.707-10.734,11.992,11.992,0,0,1,11.656,11.02v13.1a55.349,55.349,0,0,1,34.273,15.023,11.9,11.9,0,1,1-16.524,17.121l-.027.031,0,0a38.231,38.231,0,0,0-28.215-9.434c-14.3,0-21.23,7.93-21.23,17.363a13.319,13.319,0,0,0,4.059,9.859,23.47,23.47,0,0,0,12.738,5.426l16.23,2.313h0A45.756,45.756,0,0,1,391.687,209.1,38.621,38.621,0,0,1,402.3,238.259a41.122,41.122,0,0,1-38.2,40.55v13.2h-.066a11.593,11.593,0,0,1-23.18,0h-.07V279.36h0A59.814,59.814,0,0,1,301.1,261.848ZM548,203.328l-58-32.223V116.664A46.665,46.665,0,0,0,443.332,70H256.672A46.665,46.665,0,0,0,210,116.664v54.441l-58,32.223a23.33,23.33,0,0,0-12,20.4V420a70.005,70.005,0,0,0,70,70H490a70.005,70.005,0,0,0,70-70V223.727a23.33,23.33,0,0,0-12-20.4Zm-291.33-110H443.336a23.366,23.366,0,0,1,23.336,23.336v157.26L350,336.752,233.332,273.92V116.67a23.366,23.366,0,0,1,23.336-23.336ZM536.67,420A46.72,46.72,0,0,1,490,466.666H210A46.72,46.72,0,0,1,163.334,420V223.728L210,197.8v63.555l-6.129-3.3v0A11.674,11.674,0,0,0,192.8,278.607l151.67,81.668a11.725,11.725,0,0,0,11.07,0l151.67-81.668a11.674,11.674,0,0,0-11.074-20.555l-6.129,3.3V197.8l46.668,25.926Z" transform="translate(-136.004 -65.996)" fill="#fff" stroke="#eb4c4b" stroke-width="8"/>
</svg>
