<svg xmlns="http://www.w3.org/2000/svg" width="40.262" height="40.263" viewBox="0 0 40.262 40.263">
  <g id="noun-phone-call-1887713" transform="translate(-69.93 0.161)">
    <path id="Path_19601" data-name="Path 19601" d="M99.364,22.878l-4.615,4.49A49.924,49.924,0,0,1,86.7,23.377l-.044-.044a49.885,49.885,0,0,1-3.992-8.049l4.49-4.615a1.435,1.435,0,0,0,.388-1.059c-.028-1.558-2.051-4.057-3.938-5.876-.884-.859-5.384-5.039-7.061-3.324-.611.63-3.656,3.562-4.4,4.559A10.961,10.961,0,0,0,70.558,8.05,9.835,9.835,0,0,0,70.14,9.9a14.806,14.806,0,0,0,.1,4.261,24.183,24.183,0,0,0,1.286,4.791,33.7,33.7,0,0,0,2.414,5.061,35.433,35.433,0,0,0,4.387,6.132,30.321,30.321,0,0,0,6.058,4.95q.807.522,1.639,1a33.68,33.68,0,0,0,5.061,2.414,24.186,24.186,0,0,0,4.791,1.286,14.806,14.806,0,0,0,4.261.1,9.829,9.829,0,0,0,1.847-.417,10.951,10.951,0,0,0,3.082-1.584c1-.746,3.929-3.791,4.559-4.4,1.715-1.678-2.464-6.177-3.324-7.061-1.818-1.887-4.317-3.91-5.876-3.938h0a1.435,1.435,0,0,0-1.059.388Zm5.662,4.779c2.2,2.286,3.167,4.107,3.239,4.675a44.255,44.255,0,0,1-4.556,4.311,5.046,5.046,0,0,1-.539.345,9.02,9.02,0,0,1-3.276,1.157c-.307.044-.612.072-.922.088a14.083,14.083,0,0,1-2.788-.173,20.736,20.736,0,0,1-3.082-.731,27.849,27.849,0,0,1-3.267-1.26A34.911,34.911,0,0,1,86.477,34.3a32.125,32.125,0,0,1-5.95-4.434,30.528,30.528,0,0,1-4.8-6.314A34.9,34.9,0,0,1,73.963,20.2,27.856,27.856,0,0,1,72.7,16.93a20.778,20.778,0,0,1-.731-3.082,14.105,14.105,0,0,1-.172-2.788c.016-.31.044-.614.088-.922a9.02,9.02,0,0,1,1.157-3.276,5.045,5.045,0,0,1,.345-.539A44.232,44.232,0,0,1,77.7,1.767c.568.072,2.389,1.035,4.675,3.239s3.3,3.985,3.389,4.55L81.08,14.372c-.429.436-.643.655,1.471,5.114a34.241,34.241,0,0,0,2.784,5.035l.176.176a34.266,34.266,0,0,0,5.035,2.784c4.459,2.113,4.678,1.9,5.114,1.471l4.816-4.684c.565.095,2.349,1.114,4.55,3.39Z" transform="translate(0 0)" fill="#eb4c4b" stroke="#eb4c4b" stroke-width="0.2"/>
    <path id="Path_19602" data-name="Path 19602" d="M355.721,72.588a.914.914,0,1,0,0,1.828h0a10.989,10.989,0,0,1,10.966,10.966.914.914,0,0,0,1.828,0A12.816,12.816,0,0,0,355.72,72.588Z" transform="translate(-264.434 -67.403)" fill="#eb4c4b" stroke="#eb4c4b" stroke-width="0.2"/>
    <path id="Path_19603" data-name="Path 19603" d="M363.971,133.813a.914.914,0,0,0,.914-.914,9.15,9.15,0,0,0-9.138-9.138.914.914,0,0,0,0,1.828,7.322,7.322,0,0,1,7.31,7.31.914.914,0,0,0,.914.914Z" transform="translate(-264.46 -114.92)" fill="#eb4c4b" stroke="#eb4c4b" stroke-width="0.2"/>
    <path id="Path_19604" data-name="Path 19604" d="M355.721,174.93a.914.914,0,1,0,0,1.828,3.663,3.663,0,0,1,3.655,3.655.914.914,0,1,0,1.828,0,5.484,5.484,0,0,0-5.483-5.483Z" transform="translate(-264.434 -162.434)" fill="#eb4c4b" stroke="#eb4c4b" stroke-width="0.2"/>
  </g>
</svg>
