<svg xmlns="http://www.w3.org/2000/svg" width="31.503" height="40.5" viewBox="0 0 31.503 40.5">
  <g id="noun-resume-5005327" transform="translate(-161.625 -34.749)">
    <path id="Path_19575" data-name="Path 19575" d="M192.863,44.924a.767.767,0,0,0-.227-.483l-10.3-9.257A.817.817,0,0,0,181.85,35H166.571a4.51,4.51,0,0,0-4.7,4.286V70.713a4.51,4.51,0,0,0,4.7,4.286h21.605a4.51,4.51,0,0,0,4.7-4.286c-.009-.046.018-25.749-.009-25.789Zm-10.294-7.6,7.714,6.931h-4.46a3.079,3.079,0,0,1-3.254-2.857Zm5.607,36.245H166.571a3.079,3.079,0,0,1-3.254-2.857V39.284a3.079,3.079,0,0,1,3.254-2.857h14.557V41.4a4.51,4.51,0,0,0,4.7,4.286h5.607V70.712a3.079,3.079,0,0,1-3.254,2.857Z" transform="translate(0)" fill="#eb4c4b" stroke="#eb4c4b" stroke-width="0.5"/>
    <path id="Path_19576" data-name="Path 19576" d="M308.787,149.5c3.374.5,4.841-3.125,3.981-5.983a2.7,2.7,0,0,0-2.423-2l-1.964,0c-2.43.182-2.876,3.1-2.46,5.021a3.7,3.7,0,0,0,2.866,2.958Zm-1.385-5.624a1.24,1.24,0,0,1,1.04-.929l1.842,0c1.427.213,1.362,1.915,1.183,3.311a2.166,2.166,0,0,1-2.409,1.842c-1.812-.346-2.107-2.66-1.656-4.222Z" transform="translate(-132.018 -97.827)" fill="#eb4c4b" stroke="#eb4c4b" stroke-width="0.5"/>
    <path id="Path_19577" data-name="Path 19577" d="M272.158,247.382a14.536,14.536,0,0,0,9.366,0,2.624,2.624,0,0,0,1.8-2.5c-.052-1.388.345-3.388-1-4.318l-1.6-1.26a1.581,1.581,0,0,0-1.961.007,3.121,3.121,0,0,1-3.847,0,1.581,1.581,0,0,0-1.963-.008l-1.6,1.258c-1.353.939-.952,2.926-1,4.32a2.625,2.625,0,0,0,1.8,2.5Zm-.375-4.75a1.186,1.186,0,0,1,.458-.942l1.6-1.26a.157.157,0,0,1,.194.008,4.622,4.622,0,0,0,1.987.908,6.305,6.305,0,0,0,1.641,0,4.629,4.629,0,0,0,1.987-.908.155.155,0,0,1,.194-.008l1.6,1.262a1.185,1.185,0,0,1,.456.941v2.254a1.2,1.2,0,0,1-.822,1.14,13.109,13.109,0,0,1-8.47,0,1.2,1.2,0,0,1-.823-1.14Z" transform="translate(-99.466 -187.32)" fill="#eb4c4b" stroke="#eb4c4b" stroke-width="0.5"/>
    <path id="Path_19578" data-name="Path 19578" d="M268.359,446.25h-14.7a.714.714,0,0,0,0,1.429h14.7A.714.714,0,0,0,268.359,446.25Z" transform="translate(-83.633 -377.68)" fill="#eb4c4b" stroke="#eb4c4b" stroke-width="0.5"/>
    <path id="Path_19579" data-name="Path 19579" d="M404.99,393.75h-2.276a.714.714,0,0,0,0,1.429h2.275a.714.714,0,0,0,0-1.429Z" transform="translate(-220.33 -329.466)" fill="#eb4c4b" stroke="#eb4c4b" stroke-width="0.5"/>
    <path id="Path_19580" data-name="Path 19580" d="M253.651,395.179h7.222a.714.714,0,0,0,0-1.429h-7.222A.714.714,0,0,0,253.651,395.179Z" transform="translate(-83.545 -329.466)" fill="#eb4c4b" stroke="#eb4c4b" stroke-width="0.5"/>
    <path id="Path_19581" data-name="Path 19581" d="M371.55,394.62a.714.714,0,0,0,1.429,0A.714.714,0,0,0,371.55,394.62Z" transform="translate(-192.393 -329.621)" fill="#eb4c4b" stroke="#eb4c4b" stroke-width="0.5"/>
  </g>
</svg>
