<svg xmlns="http://www.w3.org/2000/svg" width="70.5" height="112.501" viewBox="0 0 70.5 112.501">
  <g id="noun-smart-watch-4535065" transform="translate(-212.184 -37.583)">
    <path id="Path_19405" data-name="Path 19405" d="M277.353,89.584a5.075,5.075,0,0,0,5.081-5.059v-6.07a5.074,5.074,0,0,0-6.1-4.956V70.64a14.093,14.093,0,0,0-4.782-10.564,28.008,28.008,0,0,1-2.637-3.863,23.805,23.805,0,0,1-3.153-11.082,5.666,5.666,0,0,0-4.377-5.1,66.988,66.988,0,0,0-34.006,0,5.67,5.67,0,0,0-4.378,5.1,23.809,23.809,0,0,1-3.153,11.081,28.037,28.037,0,0,1-2.635,3.861,14.1,14.1,0,0,0-4.784,10.565v46.468a14.109,14.109,0,0,0,5,10.764,27.759,27.759,0,0,1,2.416,3.582A23.827,23.827,0,0,1,223,142.535a5.666,5.666,0,0,0,4.377,5.1,60.162,60.162,0,0,0,16.976,2.194c.282,0,.564.006.846.006h0a60.064,60.064,0,0,0,16.184-2.2,5.67,5.67,0,0,0,4.378-5.1,23.817,23.817,0,0,1,3.153-11.08,27.725,27.725,0,0,1,2.418-3.584,14.108,14.108,0,0,0,5-10.762v-3.345a5.073,5.073,0,0,0,6.1-4.956v-6.07a5.074,5.074,0,0,0-6.1-4.957v-8.3a5.043,5.043,0,0,0,1.016.1Zm0-12.141a1.015,1.015,0,0,1,1.016,1.012v6.07a1.016,1.016,0,0,1-2.032,0v-6.07A1.013,1.013,0,0,1,277.353,77.443ZM227.067,45.251c.017-.55.6-1.094,1.417-1.323h0a62.908,62.908,0,0,1,31.8,0c.816.229,1.4.771,1.415,1.321a27.556,27.556,0,0,0,2.945,11.463,14.314,14.314,0,0,0-2.537-.238H226.659a14.308,14.308,0,0,0-2.537.238,27.572,27.572,0,0,0,2.945-11.462ZM261.7,142.414c-.017.55-.6,1.094-1.417,1.323h0a62.909,62.909,0,0,1-31.8,0c-.816-.229-1.4-.771-1.415-1.321a27.558,27.558,0,0,0-2.9-11.376,14.256,14.256,0,0,0,2.494.231h35.452a14.255,14.255,0,0,0,2.494-.231,27.556,27.556,0,0,0-2.9,11.375Zm10.57-25.306h0a10.152,10.152,0,0,1-10.161,10.117H226.658A10.152,10.152,0,0,1,216.5,117.107V70.639a10.152,10.152,0,0,1,10.161-10.117H262.11a10.152,10.152,0,0,1,10.161,10.117Zm5.081-15.384a1.015,1.015,0,0,1,1.016,1.012v6.07a1.016,1.016,0,0,1-2.032,0v-6.07A1.013,1.013,0,0,1,277.352,101.724Z" transform="translate(0)" fill="#fff" stroke="#eb4c4b" stroke-width="0.5"/>
    <path id="Path_19406" data-name="Path 19406" d="M315.4,231.475l-7.955-7.955a2.037,2.037,0,0,1,2.88-2.88L317,227.32l15.461-12.1h0a2.037,2.037,0,0,1,2.51,3.208l-16.881,13.21a2.036,2.036,0,0,1-2.695-.164Z" transform="translate(-72.526 -136.088)" fill="#fff" stroke="#eb4c4b" stroke-width="0.5"/>
  </g>
</svg>
