<svg xmlns="http://www.w3.org/2000/svg" width="84" height="112" viewBox="0 0 84 112">
  <g id="noun-work-at-home-4400751" transform="translate(-163.633 -32.192)">
    <path id="Path_19479" data-name="Path 19479" d="M317.831,341.45c-5.265,0-9.393,2.852-9.393,6.5s4.123,6.492,9.393,6.492,9.393-2.852,9.393-6.492S323.1,341.45,317.831,341.45Zm0,9.332c-3.281,0-5.732-1.5-5.732-2.836s2.452-2.832,5.732-2.832,5.732,1.5,5.732,2.84S321.112,350.782,317.831,350.782Z" transform="translate(-112.2 -239.363)" fill="#fff"/>
    <path id="Path_19480" data-name="Path 19480" d="M237.971,118.76a15.254,15.254,0,0,0,5.864-14.112l-.372-2.852a34.993,34.993,0,0,0-27.171-29.607,21.355,21.355,0,1,0-21.32,0A35.015,35.015,0,0,0,167.8,101.795l-.372,2.852A15.254,15.254,0,0,0,173.3,118.76a12.813,12.813,0,0,0-9.667,12.415v.22a12.795,12.795,0,0,0,12.761,12.8h58.479a12.795,12.795,0,0,0,12.761-12.8v-.22a12.814,12.814,0,0,0-9.659-12.414Zm-40.931,4.294H186.913a.9.9,0,0,1-.893-.9V95a.9.9,0,0,1,.893-.9h37.436a.9.9,0,0,1,.893.9v27.155a.9.9,0,0,1-.893.894Zm-9.12-69.421a7.217,7.217,0,1,1-.009,0Zm-16.889,51.5.38-2.843A31.289,31.289,0,0,1,202.325,75.06h6.611a31.289,31.289,0,0,1,30.913,27.229l.379,2.848h0a11.562,11.562,0,0,1-7.717,12.451l-2.344.794a1.814,1.814,0,0,0-1.03.351l-.246.084V95a4.549,4.549,0,0,0-4.538-4.551h-37.44A4.548,4.548,0,0,0,182.376,95v23.81l-3.626-1.236h0a11.563,11.563,0,0,1-7.717-12.444Zm50.736,35.4H176.391a9.133,9.133,0,0,1-9.12-9.146v-.221a9.133,9.133,0,0,1,9.12-9.146h3.559a1.759,1.759,0,0,0,.4-.044l2.055.7a4.549,4.549,0,0,0,4.506,4.027h9.881l21.745,6.427a10.447,10.447,0,0,1,6.563,5.8,1.14,1.14,0,0,1-1.035,1.607Zm22.217-9.146a9.135,9.135,0,0,1-9.12,9.146H228.7a4.918,4.918,0,0,0-.328-3.214,14.021,14.021,0,0,0-8.821-7.7l-9.872-2.917h14.651a4.547,4.547,0,0,0,4.506-4.027l1.92-.652h4.1a9.135,9.135,0,0,1,9.12,9.146Z" fill="#fff"/>
  </g>
</svg>
