<svg xmlns="http://www.w3.org/2000/svg" width="194.254" height="52.563" viewBox="0 0 194.254 52.563">
  <g id="charter-hall" transform="translate(-18.025 -22.735)">
    <path id="Path_19624" data-name="Path 19624" d="M360.543,88.242a14.58,14.58,0,0,1-.108-1.86V78.916a3.43,3.43,0,0,0-.587-2.1,4,4,0,0,0-1.5-1.236,6.878,6.878,0,0,0-2.027-.6,16.3,16.3,0,0,0-2.194-.152,12.1,12.1,0,0,0-2.374.236,6.7,6.7,0,0,0-2.121.791,4.709,4.709,0,0,0-1.558,1.472,4.525,4.525,0,0,0-.69,2.3h3.939a2.227,2.227,0,0,1,.777-1.666,2.991,2.991,0,0,1,1.832-.5,6.764,6.764,0,0,1,.986.069,2.148,2.148,0,0,1,.8.278,1.49,1.49,0,0,1,.552.583,2.051,2.051,0,0,1,.209,1.014,1.047,1.047,0,0,1-.361.927,2.664,2.664,0,0,1-1.055.489,10.491,10.491,0,0,1-1.524.25c-.573.059-1.16.128-1.749.222a16.1,16.1,0,0,0-1.76.375,4.956,4.956,0,0,0-1.558.7,3.671,3.671,0,0,0-1.111,1.263,4.188,4.188,0,0,0-.43,2.013,4.448,4.448,0,0,0,.378,1.916,3.6,3.6,0,0,0,1.037,1.333,4.343,4.343,0,0,0,1.555.777,7.172,7.172,0,0,0,1.919.25,9,9,0,0,0,2.607-.385,5.167,5.167,0,0,0,2.218-1.364,6.912,6.912,0,0,0,.1.708,6.066,6.066,0,0,0,.184.677h3.995A3.369,3.369,0,0,1,360.543,88.242Zm-4.054-4.217a7.643,7.643,0,0,1-.066.885,3.055,3.055,0,0,1-.375,1.1,2.61,2.61,0,0,1-.944.931,3.474,3.474,0,0,1-1.8.392,5,5,0,0,1-.919-.087,2.286,2.286,0,0,1-.777-.292,1.509,1.509,0,0,1-.524-.57,1.859,1.859,0,0,1-.195-.889,1.918,1.918,0,0,1,.195-.913,1.821,1.821,0,0,1,.51-.6,2.789,2.789,0,0,1,.753-.375,6.63,6.63,0,0,1,.875-.219c.316-.059.629-.1.944-.142s.614-.079.9-.135a7.24,7.24,0,0,0,.805-.209,1.735,1.735,0,0,0,.621-.351v1.475Z" transform="translate(-214.758 -34.017)" fill="#989caa"/>
    <rect id="Rectangle_9497" data-name="Rectangle 9497" width="3.942" height="19.82" transform="translate(152.112 35.738)" fill="#989caa"/>
    <path id="Path_19625" data-name="Path 19625" d="M308.615,67.805h-8.022V60.2h-4.358V80.02h4.358V71.47h8.022v8.55h4.36V60.2h-4.36Z" transform="translate(-181.651 -24.462)" fill="#989caa"/>
    <rect id="Rectangle_9498" data-name="Rectangle 9498" width="3.942" height="19.82" transform="translate(146.894 35.738)" fill="#989caa"/>
    <path id="Path_19626" data-name="Path 19626" d="M128.277,88.242a13.948,13.948,0,0,1-.115-1.86V78.916a3.45,3.45,0,0,0-.583-2.1,4.085,4.085,0,0,0-1.5-1.239,6.818,6.818,0,0,0-2.027-.593,16.255,16.255,0,0,0-2.19-.152,11.983,11.983,0,0,0-2.377.236,6.827,6.827,0,0,0-2.121.791,4.694,4.694,0,0,0-1.555,1.472,4.56,4.56,0,0,0-.691,2.3h3.936a2.215,2.215,0,0,1,.781-1.662,2.993,2.993,0,0,1,1.833-.5,6.379,6.379,0,0,1,.986.069,2.193,2.193,0,0,1,.805.278,1.623,1.623,0,0,1,.555.58,2.147,2.147,0,0,1,.2,1.013,1.05,1.05,0,0,1-.361.931,2.622,2.622,0,0,1-1.051.489,10.144,10.144,0,0,1-1.527.246c-.573.059-1.159.128-1.749.226a15.472,15.472,0,0,0-1.763.375,5,5,0,0,0-1.555.7,3.667,3.667,0,0,0-1.111,1.263,4.188,4.188,0,0,0-.43,2.013,4.515,4.515,0,0,0,.375,1.916,3.705,3.705,0,0,0,1.041,1.333,4.426,4.426,0,0,0,1.555.777,7.2,7.2,0,0,0,1.912.25,8.894,8.894,0,0,0,2.613-.389,5.225,5.225,0,0,0,2.221-1.361,5.7,5.7,0,0,0,.278,1.385h4A3.273,3.273,0,0,1,128.277,88.242Zm-4.057-4.217a7.135,7.135,0,0,1-.069.885,2.932,2.932,0,0,1-.375,1.1,2.575,2.575,0,0,1-.941.931,3.489,3.489,0,0,1-1.808.392,4.966,4.966,0,0,1-.913-.087,2.277,2.277,0,0,1-.777-.292,1.5,1.5,0,0,1-.531-.57,1.921,1.921,0,0,1-.191-.889,1.961,1.961,0,0,1,.191-.913,1.876,1.876,0,0,1,.513-.6,2.685,2.685,0,0,1,.754-.375,8.166,8.166,0,0,1,.871-.222c.316-.056.628-.1.944-.139s.618-.079.9-.135a7.646,7.646,0,0,0,.805-.209,1.721,1.721,0,0,0,.625-.351v1.475Z" transform="translate(-63.103 -34.017)" fill="#989caa"/>
    <path id="Path_19627" data-name="Path 19627" d="M30.9,74.713a4.047,4.047,0,0,1-3.124,1.222,5.091,5.091,0,0,1-2.5-.569,4.8,4.8,0,0,1-1.666-1.512,6.579,6.579,0,0,1-.929-2.124,10.128,10.128,0,0,1-.289-2.428,10.912,10.912,0,0,1,.289-2.529,6.741,6.741,0,0,1,.929-2.179,4.788,4.788,0,0,1,1.666-1.527,5.091,5.091,0,0,1,2.5-.569,4.552,4.552,0,0,1,1.541.268,4.409,4.409,0,0,1,1.319.734,4.269,4.269,0,0,1,.969,1.094,3.518,3.518,0,0,1,.5,1.375h4.219a8.023,8.023,0,0,0-.941-3.053,7.47,7.47,0,0,0-1.9-2.234,8.363,8.363,0,0,0-2.61-1.377,10.136,10.136,0,0,0-3.094-.472,9.991,9.991,0,0,0-4.093.806,8.794,8.794,0,0,0-3.072,2.222,9.951,9.951,0,0,0-1.916,3.317,12.414,12.414,0,0,0-.666,4.123,12,12,0,0,0,.666,4.036A9.742,9.742,0,0,0,20.607,76.6a8.744,8.744,0,0,0,3.072,2.176,10.115,10.115,0,0,0,4.093.8,9.81,9.81,0,0,0,3.358-.557A7.8,7.8,0,0,0,33.794,77.4a7.987,7.987,0,0,0,1.832-2.552,10.049,10.049,0,0,0,.863-3.359H32.265A5.636,5.636,0,0,1,30.9,74.713Z" transform="translate(0 -23.569)" fill="#989caa"/>
    <path id="Path_19628" data-name="Path 19628" d="M85.678,69.638a3.871,3.871,0,0,0-1.6-1.193,6.708,6.708,0,0,0-2.591-.431,5.174,5.174,0,0,0-2.278.568,11.067,11.067,0,0,0-1.919,1.44H77.21V63.81H73.27V82.374h3.941V75.23a5.308,5.308,0,0,1,.723-3.148,2.721,2.721,0,0,1,2.33-.959A2.152,2.152,0,0,1,82.235,72a5.053,5.053,0,0,1,.555,2.651v7.726h3.942V73.928A11.692,11.692,0,0,0,86.5,71.5,4.663,4.663,0,0,0,85.678,69.638Z" transform="translate(-36.071 -26.819)" fill="#989caa"/>
    <path id="Path_19629" data-name="Path 19629" d="M163.672,76.137a5.351,5.351,0,0,0-1.305.624,5.119,5.119,0,0,0-1.083.973,4.8,4.8,0,0,0-.751,1.236h-.054V75.955H156.73V90.3h3.943V83.9a8.019,8.019,0,0,1,.2-1.81,3.824,3.824,0,0,1,.654-1.456,3.147,3.147,0,0,1,1.2-.986,4.251,4.251,0,0,1,1.834-.357c.238,0,.474-.034.744-.025.2.005.487-.014.669,0v-3.3h-.859A4.665,4.665,0,0,0,163.672,76.137Z" transform="translate(-90.564 -34.749)" fill="#989caa"/>
    <path id="Path_19630" data-name="Path 19630" d="M192.8,79.27a1.337,1.337,0,0,1-1.666-1.662V70.5h2.89V67.862h-2.89v-4.3H187.2v4.3h-2.383V70.5H187.2v8.467a3.617,3.617,0,0,0,.363,1.749,2.6,2.6,0,0,0,.986,1.027,4.126,4.126,0,0,0,1.442.485,11.8,11.8,0,0,0,1.737.128c.387,0,.784-.011,1.194-.029a10.091,10.091,0,0,0,1.11-.111V79.158a4.908,4.908,0,0,1-.584.086C193.24,79.261,193.027,79.27,192.8,79.27Z" transform="translate(-108.9 -26.656)" fill="#989caa"/>
    <path id="Path_19631" data-name="Path 19631" d="M224.021,80.166a7.944,7.944,0,0,0-1.264-2.721,6.442,6.442,0,0,0-2.239-1.9,6.774,6.774,0,0,0-3.189-.708,7.483,7.483,0,0,0-2.985.58,7.022,7.022,0,0,0-2.315,1.6,6.91,6.91,0,0,0-1.5,2.4,8.376,8.376,0,0,0-.528,3,8.78,8.78,0,0,0,.514,3.051,6.927,6.927,0,0,0,1.457,2.388,6.326,6.326,0,0,0,2.3,1.541,8.2,8.2,0,0,0,3.054.541,7.523,7.523,0,0,0,4.161-1.111,6.562,6.562,0,0,0,2.554-3.693h-3.471a2.445,2.445,0,0,1-1.055,1.263,4.038,4.038,0,0,1-4.606-.263,3.967,3.967,0,0,1-.968-2.777H224.3A10.3,10.3,0,0,0,224.021,80.166Zm-10.076.694a4.422,4.422,0,0,1,.174-.944,2.924,2.924,0,0,1,.531-1,2.964,2.964,0,0,1,1-.788,3.4,3.4,0,0,1,1.565-.319,2.783,2.783,0,0,1,2.155.777,4.573,4.573,0,0,1,.986,2.277h-6.41Z" transform="translate(-125.345 -34.017)" fill="#989caa"/>
    <path id="Path_19632" data-name="Path 19632" d="M260.446,75.057a5.234,5.234,0,0,0-1.3.624,4.89,4.89,0,0,0-1.832,2.207h-.057V75.222H253.5V89.571h3.948V83.107a7.972,7.972,0,0,1,.191-1.805,3.878,3.878,0,0,1,.654-1.457,3.156,3.156,0,0,1,1.2-.984,4.182,4.182,0,0,1,1.834-.363,6.707,6.707,0,0,1,.75.042c.257.028.479.059.664.1V74.97a3.163,3.163,0,0,0-.86-.137A4.657,4.657,0,0,0,260.446,75.057Z" transform="translate(-153.749 -34.016)" fill="#989caa"/>
    <path id="Path_19633" data-name="Path 19633" d="M475.2,64.535,454.061,83.56,475.2,102.59l21.145-19.03Z" transform="translate(-284.699 -27.292)" fill="#989caa"/>
    <path id="Path_19634" data-name="Path 19634" d="M452.236,55.215l21.145-19.028V22.735L452.236,41.761Z" transform="translate(-283.507)" fill="#989caa"/>
    <path id="Path_19635" data-name="Path 19635" d="M516.793,22.735V36.187l21.145,19.028V41.761Z" transform="translate(-325.658)" fill="#989caa"/>
  </g>
</svg>
