<svg xmlns="http://www.w3.org/2000/svg" width="60" height="61" viewBox="0 0 60 61">
  <g id="Group_19678" data-name="Group 19678" transform="translate(-1415 -2403)">
    <rect id="Rectangle_9493" data-name="Rectangle 9493" width="60" height="60" transform="translate(1415 2403)" fill="none"/>
    <g id="css-3" transform="translate(1418.715 2404)">
      <path id="Path_19304" data-name="Path 19304" d="M4.4,53.794,0,0,52.568.108,47.914,53.794,26.483,60Z" fill="#1b73ba"/>
      <path id="Path_19305" data-name="Path 19305" d="M62.468,61.766V12.085l21.648.072-3.86,44.45Z" transform="translate(-35.985 -6.962)" fill="#1c88c7"/>
      <path id="Path_19306" data-name="Path 19306" d="M55.6,27.064H22.3l.9,6.494H39l-15.55,6.675.9,6.278H47.265l-.83,8.767-7.757,1.516-7.035-1.8L31.1,50.01H24.643l.866,10.355,13.855,3.86L52.641,60l1.7-20.241H40.3l15.3-6.35Z" transform="translate(-12.845 -15.591)" fill="#fff"/>
    </g>
  </g>
</svg>
