<svg xmlns="http://www.w3.org/2000/svg" width="150.6" height="52" viewBox="0 0 150.6 52">
  <g id="Group_1271" data-name="Group 1271" transform="translate(0 0)">
    <g id="Group_1252" data-name="Group 1252" transform="translate(22.441)">
      <g id="Group_1245" data-name="Group 1245" transform="translate(0 0.297)">
        <path id="Path_1079" data-name="Path 1079" d="M4286.62,1012.618V989.266h4.188v23.358Z" transform="translate(-4286.62 -989.266)" fill="#989caa"/>
      </g>
      <g id="Group_1246" data-name="Group 1246" transform="translate(8.721 6.417)">
        <path id="Path_1080" data-name="Path 1080" d="M4354.88,1054.53v-16.889h3.988v2.413a5.42,5.42,0,0,1,5.061-2.748c3.988,0,6.3,2.58,6.3,6.769v5.328c0,1.307.235,1.776,1.135,1.776a2.952,2.952,0,0,0,.567-.067v3.385a6.369,6.369,0,0,1-1.744.2c-2.647,0-3.954-1.476-3.954-4.427v-5.63a3.368,3.368,0,0,0-3.551-3.753,3.705,3.705,0,0,0-3.822,3.92v9.718Z" transform="translate(-4354.88 -1037.296)" fill="#989caa"/>
      </g>
      <g id="Group_1247" data-name="Group 1247" transform="translate(25.376 6.764)">
        <path id="Path_1081" data-name="Path 1081" d="M4494.951,1056.819l-7.237-16.889h4.156l4.792,11.464,4.758-11.464h4.155l-7.238,16.889Z" transform="translate(-4487.714 -1039.93)" fill="#989caa"/>
      </g>
      <g id="Group_1248" data-name="Group 1248" transform="translate(43.161 6.266)">
        <path id="Path_1082" data-name="Path 1082" d="M4628.69,1044.944a8.526,8.526,0,0,1,2.681-6.366,9.562,9.562,0,0,1,13.068,0,8.9,8.9,0,0,1,0,12.734,9.562,9.562,0,0,1-13.068,0,8.528,8.528,0,0,1-2.681-6.367Zm12.939,3.788a5.205,5.205,0,0,0,1.508-3.788,5.078,5.078,0,0,0-1.507-3.753,5.3,5.3,0,0,0-7.475,0,5.183,5.183,0,0,0-1.475,3.753,5.319,5.319,0,0,0,1.475,3.788A5.386,5.386,0,0,0,4641.629,1048.732Z" transform="translate(-4628.689 -1035.997)" fill="#989caa"/>
      </g>
      <g id="Group_1249" data-name="Group 1249" transform="translate(63.855)">
        <path id="Path_1083" data-name="Path 1083" d="M4791.98,989.549a2.372,2.372,0,1,1,.705,1.7,2.4,2.4,0,0,1-.705-1.7Zm.4,4.356h4.02v11.863c0,1.306.268,1.776,1.174,1.776a3.537,3.537,0,0,0,.7-.067v3.385a5.638,5.638,0,0,1-2.011.268c-2.58,0-3.886-1.442-3.886-4.289Z" transform="translate(-4791.98 -987.141)" fill="#989caa"/>
      </g>
      <g id="Group_1250" data-name="Group 1250" transform="translate(71.332 6.229)">
        <path id="Path_1084" data-name="Path 1084" d="M4867.778,1038.647l-2.481,2.581a5.684,5.684,0,0,0-4.29-1.843,5.058,5.058,0,0,0-3.72,1.508,5.6,5.6,0,0,0,0,7.574,5.059,5.059,0,0,0,3.72,1.507,5.683,5.683,0,0,0,4.29-1.843l2.481,2.58a8.855,8.855,0,0,1-6.771,2.916,8.951,8.951,0,1,1,0-17.895A8.853,8.853,0,0,1,4867.778,1038.647Z" transform="translate(-4851.824 -1035.73)" fill="#989caa"/>
      </g>
      <g id="Group_1251" data-name="Group 1251" transform="translate(88.508 6.286)">
        <path id="Path_1085" data-name="Path 1085" d="M4988.082,1045.172a8.45,8.45,0,0,1,8.847-8.914,7.857,7.857,0,0,1,6,2.447,8.4,8.4,0,0,1,2.346,6.065c0,.5-.032.972-.067,1.407h-13.138c.138,2.681,2.112,4.427,5.095,4.427a6.215,6.215,0,0,0,4.558-1.944l2.414,2.346a9.37,9.37,0,0,1-7.1,3.016,9,9,0,0,1-6.469-2.383,8.373,8.373,0,0,1-2.481-6.333Zm13.1-1.809a3.278,3.278,0,0,0-1.272-2.58,4.318,4.318,0,0,0-2.982-1.106,5.189,5.189,0,0,0-3.251,1.072,3.673,3.673,0,0,0-1.509,2.611Z" transform="translate(-4988.069 -1036.248)" fill="#989caa"/>
      </g>
    </g>
    <g id="Group_1253" data-name="Group 1253" transform="translate(75.303 17.797)">
      <path id="Path_1086" data-name="Path 1086" d="M4704.69,1126.59" transform="translate(-4704.69 -1126.59)" fill="#989caa"/>
    </g>
    <g id="Group_1261" data-name="Group 1261" transform="translate(0 28.14)">
      <g id="Group_1254" data-name="Group 1254" transform="translate(0 0)">
        <path id="Path_1087" data-name="Path 1087" d="M4124.063,1208.06h-3.555l-9.75,23.359h4.426l1.909-4.654h10.389l1.91,4.654h4.426Zm-5.665,15.249,3.886-9.518,3.887,9.518Z" transform="translate(-4110.758 -1208.06)" fill="#989caa"/>
      </g>
      <g id="Group_1255" data-name="Group 1255" transform="translate(24.175 6.471)">
        <path id="Path_1088" data-name="Path 1088" d="M4317.979,1272.431c-.908,0-1.24-.5-1.24-1.944v-11.762h-4.015v9.719a3.656,3.656,0,0,1-3.687,3.919c-2.177,0-3.418-1.44-3.418-3.752v-9.887H4301.6v10.457c0,4.188,2.413,6.769,6.434,6.769,2.446,0,4.158-.839,5.128-2.479a3.16,3.16,0,0,0,1.209,1.775,4.248,4.248,0,0,0,2.478.67,5.846,5.846,0,0,0,1.979-.266v-3.286C4318.523,1272.4,4318.218,1272.431,4317.979,1272.431Z" transform="translate(-4301.601 -1258.723)" fill="#989caa"/>
      </g>
      <g id="Group_1256" data-name="Group 1256" transform="translate(42.043 0.001)">
        <path id="Path_1089" data-name="Path 1089" d="M4452.422,1218.184v-3.654H4448.7v-6.469h-4.02v6.469h-2.113v3.654h2.113v7.974c0,3.821,1.811,5.732,5.463,5.732a9.251,9.251,0,0,0,2.078-.2V1228.1a6.372,6.372,0,0,1-1.406.134c-1.475,0-2.113-.671-2.113-2.515v-7.539Z" transform="translate(-4442.569 -1208.061)" fill="#989caa"/>
      </g>
      <g id="Group_1257" data-name="Group 1257" transform="translate(73.972 6.139)">
        <path id="Path_1090" data-name="Path 1090" d="M4720.676,1269.981c-.908,0-1.136-.47-1.136-1.778v-5.329c0-4.188-2.111-6.769-5.762-6.769-2.648,0-4.459.97-5.43,2.951a5.21,5.21,0,0,0-9.285-.2v-2.415h-3.987v16.891h3.987v-9.719c0-2.279,1.411-3.921,3.286-3.921,1.909,0,3.018,1.443,3.018,3.755v9.887h3.987v-9.719c0-2.279,1.373-3.922,3.249-3.922s2.951,1.443,2.951,3.755v5.631c0,2.951,1.311,4.427,3.956,4.427a5.713,5.713,0,0,0,1.741-.2v-3.385A3.006,3.006,0,0,1,4720.676,1269.981Z" transform="translate(-4695.076 -1256.105)" fill="#989caa"/>
      </g>
      <g id="Group_1258" data-name="Group 1258" transform="translate(101.468 6.1)">
        <path id="Path_1091" data-name="Path 1091" d="M4931.032,1269.983c-.907,0-1.239-.535-1.239-1.977v-11.8h-4.021v2.446c-.637-1.608-2.679-2.814-5.393-2.814a8.029,8.029,0,0,0-6.034,2.545,8.683,8.683,0,0,0-2.41,6.267,8.813,8.813,0,0,0,2.411,6.3,8.026,8.026,0,0,0,6.033,2.544c2.678,0,4.623-.871,5.8-2.647a3.1,3.1,0,0,0,1.374,2.043,4.409,4.409,0,0,0,2.344.537,5.822,5.822,0,0,0,1.979-.268v-3.251A8.378,8.378,0,0,1,4931.032,1269.983Zm-6.47-1.642a5,5,0,0,1-3.655,1.475,4.847,4.847,0,0,1-3.584-1.475,5.531,5.531,0,0,1,0-7.378,4.851,4.851,0,0,1,3.584-1.475,5.014,5.014,0,0,1,3.656,1.475,5.262,5.262,0,0,1,0,7.378Z" transform="translate(-4911.932 -1255.84)" fill="#989caa"/>
      </g>
      <g id="Group_1259" data-name="Group 1259" transform="translate(121.984 0.001)">
        <path id="Path_1092" data-name="Path 1092" d="M5084.272,1218.184v-3.654h-3.721v-6.469h-4.02v6.469h-2.112v3.654h2.112v7.974q0,5.731,5.462,5.732a9.181,9.181,0,0,0,2.076-.2V1228.1a6.294,6.294,0,0,1-1.405.134c-1.476,0-2.112-.671-2.112-2.515v-7.539Z" transform="translate(-5074.419 -1208.061)" fill="#989caa"/>
      </g>
      <g id="Group_1260" data-name="Group 1260" transform="translate(133.384 5.993)">
        <path id="Path_1093" data-name="Path 1093" d="M5181.128,1263.564a8.4,8.4,0,0,0-2.348-6.067,7.859,7.859,0,0,0-6-2.446,8.449,8.449,0,0,0-8.853,8.913v.134a8.393,8.393,0,0,0,2.481,6.336,9.007,9.007,0,0,0,6.469,2.378,9.356,9.356,0,0,0,7.1-3.017l-2.411-2.345a6.216,6.216,0,0,1-4.558,1.944c-2.983,0-4.961-1.745-5.095-4.427h13.138A12.443,12.443,0,0,0,5181.128,1263.564Zm-13.1-1.407a3.68,3.68,0,0,1,1.507-2.611,5.2,5.2,0,0,1,3.25-1.073,4.328,4.328,0,0,1,2.982,1.107,3.285,3.285,0,0,1,1.275,2.581Z" transform="translate(-5163.916 -1255.041)" fill="#989caa"/>
      </g>
    </g>
    <g id="favicon" transform="translate(53.703 34.169)">
      <g id="Group_1262" data-name="Group 1262" transform="translate(4.28 4.272)">
        <path id="Path_1094" data-name="Path 1094" d="M4577.564,1293.372a4.638,4.638,0,1,1-4.638-4.638,4.638,4.638,0,0,1,4.638,4.638Z" transform="translate(-4568.288 -1288.734)" fill="#989caa"/>
      </g>
      <g id="Group_1263" data-name="Group 1263" transform="translate(4.28 4.272)">
        <path id="Path_1095" data-name="Path 1095" d="M4577.564,1293.372a4.638,4.638,0,1,1-4.638-4.638,4.638,4.638,0,0,1,4.638,4.638Z" transform="translate(-4568.288 -1288.734)" fill="#989caa"/>
      </g>
      <g id="Group_1264" data-name="Group 1264" transform="translate(4.28 4.272)">
        <path id="Path_1096" data-name="Path 1096" d="M4577.564,1293.372a4.638,4.638,0,1,1-4.638-4.638,4.638,4.638,0,0,1,4.638,4.638Z" transform="translate(-4568.288 -1288.734)" fill="#989caa"/>
      </g>
      <g id="Group_1265" data-name="Group 1265" transform="translate(0 4.97)">
        <path id="Path_1097" data-name="Path 1097" d="M4548.454,1305.643a8.926,8.926,0,0,1-13.219-10.5,8.194,8.194,0,0,1,.4-.956,2.033,2.033,0,0,0,1.125.886,2.112,2.112,0,0,0,.442.085,6.247,6.247,0,0,0-.334.869,7.092,7.092,0,0,0,10.348,8.228A2.906,2.906,0,0,0,4548.454,1305.643Z" transform="translate(-4534.722 -1294.186)" fill="#989caa"/>
      </g>
      <g id="Group_1266" data-name="Group 1266" transform="translate(13.152 11.867)">
        <path id="Path_1098" data-name="Path 1098" d="M4641.6,1349.189a2.019,2.019,0,0,0-1.559-.988c-.059,0-.12-.009-.184-.009a2.023,2.023,0,0,0-.607,3.951,2.079,2.079,0,0,0,.606.093,2.022,2.022,0,0,0,1.744-3.047Zm-1.378,2.032a1.036,1.036,0,0,1-.363.064,1.067,1.067,0,0,1-1.066-1.068.962.962,0,0,1,.012-.159,1.068,1.068,0,0,1,2.124.159.877.877,0,0,1-.008.124,1.068,1.068,0,0,1-.693.881Z" transform="translate(-4637.835 -1348.192)" fill="#989caa"/>
      </g>
      <g id="Group_1267" data-name="Group 1267" transform="translate(4.108 0)">
        <path id="Path_1099" data-name="Path 1099" d="M4580.674,1264.091a8.865,8.865,0,0,1-.514,2.986,8.19,8.19,0,0,1-.405.961,2.021,2.021,0,0,0-1.557-.987,7.095,7.095,0,0,0-10.027-9.08,2.97,2.97,0,0,0-1.229-1.388,8.922,8.922,0,0,1,13.732,7.517Z" transform="translate(-4566.941 -1255.175)" fill="#989caa"/>
      </g>
      <g id="Group_1268" data-name="Group 1268" transform="translate(0.622 1.907)">
        <path id="Path_1100" data-name="Path 1100" d="M4543.58,1271.587a1.917,1.917,0,0,0-.183-.409,2.012,2.012,0,0,0-1.557-.988c-.059-.005-.123-.009-.185-.009a2.022,2.022,0,0,0-1.918,2.656,2.117,2.117,0,0,0,.187.408,2.028,2.028,0,0,0,1.126.887,2.128,2.128,0,0,0,.44.085c.054,0,.114.007.166.007a2.02,2.02,0,0,0,2.021-2.022,1.925,1.925,0,0,0-.1-.616Zm-1.505,1.6-.056.022a1.036,1.036,0,0,1-.362.064,1.068,1.068,0,0,1-1.067-1.068v-.092c0-.022,0-.044.009-.066a1.062,1.062,0,0,1,.664-.835l.062-.02a1.023,1.023,0,0,1,.329-.053,1.068,1.068,0,0,1,1.068,1.068.97.97,0,0,1-.008.125.342.342,0,0,1-.01.061,1.062,1.062,0,0,1-.635.8Z" transform="translate(-4539.635 -1270.182)" fill="#989caa"/>
      </g>
      <g id="Group_1269" data-name="Group 1269" transform="translate(15.262 14.252)">
        <circle id="Ellipse_32" data-name="Ellipse 32" cx="0.02" cy="0.02" r="0.02" transform="translate(0 0)" fill="#989caa"/>
      </g>
    </g>
  </g>
</svg>
