<svg xmlns="http://www.w3.org/2000/svg" width="60" height="60" viewBox="0 0 60 60">
  <g id="ionic" transform="translate(-1180 -2247)">
    <rect id="Rectangle_9486" data-name="Rectangle 9486" width="60" height="60" transform="translate(1180 2247)" fill="none"/>
    <g id="ionic-vector-logo" transform="translate(1154.3 2022.7)">
      <g id="icon" transform="translate(25.7 224.3)">
        <path id="Shape" d="M94.319,279.6a13.519,13.519,0,1,0,13.519,13.519A13.525,13.525,0,0,0,94.319,279.6Z" transform="translate(-64.676 -263.418)" fill="#3880ff"/>
        <circle id="Oval" cx="6.174" cy="6.174" r="6.174" transform="translate(42.841 5.033)" fill="#3880ff"/>
        <path id="Shape_1_" d="M82.294,241.682l-.234-.556-.41.5a9.3,9.3,0,0,1-3.716,2.546l-.41.176.176.41a23.537,23.537,0,0,1,1.844,9.276A24.233,24.233,0,1,1,65.7,232.142l.351.176.176-.41a9.2,9.2,0,0,1,2.751-3.6l.5-.41-.556-.293a29.634,29.634,0,1,0,16.065,26.337A30.253,30.253,0,0,0,82.294,241.682Z" transform="translate(-25.7 -224.3)" fill="#3880ff"/>
      </g>
    </g>
  </g>
</svg>
