<svg xmlns="http://www.w3.org/2000/svg" width="93.376" height="36.981" viewBox="0 0 93.376 36.981">
  <path id="Path_17647" data-name="Path 17647" d="M-95.25-3.659a4.607,4.607,0,0,0,4.61-4.613v-27.7c0-2.319.7-4.175,1.828-4.175v-.464H-97.1v.464c1.159,0,1.854,1.855,1.854,4.175V-6.623a2.4,2.4,0,0,1-2.318,2.5h-1.056c-3.193-.258-4.481-3.943-4.481-6.468h-.464v6.932h.464c0-.464.412-.644,1.133-.644.747,0,1.545.644,3.013.644Zm24.078,0v-.464c-1.159,0-1.931-1.907-2.343-4.149l-5.64-32.342h-.927l-5.64,32.342c-.412,2.242-1.185,4.149-2.343,4.149v.464h4.172v-.464c-.927,0-1.494-1.237-1.494-2.861a7.442,7.442,0,0,1,.1-1.289l.824-4.613h5.537l.8,4.613a7.442,7.442,0,0,1,.1,1.289c0,1.624-.567,2.861-1.494,2.861v.464ZM-79-13.349h-5.382L-81.7-28.734Zm27.245,9.69v-.464c-1.133,0-1.828-1.778-1.854-4.046V-20.281a4.565,4.565,0,0,0-3.167-4.381,4.621,4.621,0,0,0,3.167-4.407v-6.906a4.612,4.612,0,0,0-4.61-4.639H-69.292v.464c1.159,0,1.854,1.855,1.854,4.175v27.7c0,2.294-.7,4.149-1.854,4.149v.464h8.318v-.464c-1.159,0-1.854-1.855-1.854-4.149V-24.43h2.292a2.4,2.4,0,0,1,2.318,2.5V-8.22c0,2.294-.7,4.1-1.854,4.1v.464Zm-8.781-21.235h-2.292V-40.15h2.292a2.418,2.418,0,0,1,2.318,2.5v10.257A2.418,2.418,0,0,1-60.536-24.894ZM-42.149-3.659l5.64-32.316c.412-2.242,1.185-4.175,2.343-4.175v-.464h-4.172v.464c.927,0,1.494,1.237,1.494,2.861a7.942,7.942,0,0,1-.1,1.314l-3.579,20.436-3.579-20.436a7.942,7.942,0,0,1-.1-1.314c0-1.624.567-2.861,1.494-2.861v-.464H-51.06v.464c1.159,0,1.931,1.933,2.343,4.175l5.64,32.316Zm17.666,0v-.464c-1.159,0-1.854-1.855-1.854-4.149v-27.7c0-2.319.7-4.175,1.854-4.175v-.464H-32.8v.464c1.159,0,1.854,1.855,1.854,4.175v27.7c0,2.294-.7,4.149-1.854,4.149v.464Zm9.966-.052a4.471,4.471,0,0,0,4.326-4.613v-4.9A8.2,8.2,0,0,0-11.608-18.3L-17.2-27.78a7.293,7.293,0,0,1-1.21-4.51v-5.386a2.35,2.35,0,0,1,2.163-2.5l1.056-.026c3.116,0,4.558,3.866,4.558,6.494h.438V-40.64h-.438c0,.464-.386.67-.927.67-.876,0-1.571-.67-2.961-.67h-3.889a4.681,4.681,0,0,0-4.558,4.613v5.077a8.327,8.327,0,0,0,1.442,5l5.846,9.87a4.946,4.946,0,0,1,.9,3.041v6.365c0,1.392-.7,2.5-1.906,2.5h-.927c-3.245,0-4.661-3.84-4.661-6.468h-.438v6.932h.438c0-.464.361-.644.85-.644.979,0,1.648.644,3.039.644Z" transform="translate(103.567 40.64)" fill="#989caa"/>
</svg>
