<svg id="JLL" xmlns="http://www.w3.org/2000/svg" width="117.627" height="52.383" viewBox="0 0 117.627 52.383">
  <path id="Path_19605" data-name="Path 19605" d="M150.957,26.7H137.666v1.215a12.27,12.27,0,0,1,1.568.235,2.556,2.556,0,0,1,1.137.51c.784.667.784,1.96.784,4.235V48.3c0,3.137.274,7.567-4.156,7.489a4.794,4.794,0,0,1-4.47-3.842H131c.627,4.156,2.862,6.979,8.234,6.979h0c4.548,0,8.626-2.117,8.626-9.214V32.9c0-2.313,0-3.49.784-4.2a3.534,3.534,0,0,1,2.313-.784V26.739h0Z" transform="translate(-79.636 -16.231)" fill="#989caa"/>
  <path id="Path_19606" data-name="Path 19606" d="M200.292,26.7H187v1.215a3.331,3.331,0,0,1,2.313.784c.627.549.745,1.412.745,2.941V53.127c-.039,1.49-.118,2.431-.745,2.941a3.534,3.534,0,0,1-2.313.784v1.215h20.075l2.117-6.156h-1.529c-1.529,3.372-3.921,3.764-6.117,3.764a7.387,7.387,0,0,1-3.8-.627c-.667-.431-.9-1.568-.941-3.529V32.9c0-2.313,0-3.568.784-4.235a4.95,4.95,0,0,1,2.745-.706l-.039-1.255Z" transform="translate(-113.679 -16.231)" fill="#989caa"/>
  <path id="Path_19607" data-name="Path 19607" d="M256.692,26.7H243.4v1.215a3.331,3.331,0,0,1,2.313.784c.627.549.745,1.412.745,2.941V53.127c-.039,1.49-.118,2.431-.745,2.941a3.534,3.534,0,0,1-2.313.784v1.215h20.075l2.117-6.156h-1.529c-1.529,3.372-3.921,3.764-6.117,3.764a7.387,7.387,0,0,1-3.8-.627c-.667-.431-.9-1.568-.941-3.529V32.9c0-2.313,0-3.568.784-4.235a4.95,4.95,0,0,1,2.745-.706V26.7Z" transform="translate(-147.965 -16.231)" fill="#989caa"/>
  <g id="Group_19694" data-name="Group 19694" transform="translate(0)">
    <g id="Group_19687" data-name="Group 19687" transform="translate(15.448 8.038)">
      <path id="Path_19608" data-name="Path 19608" d="M43.478,63.826a11.779,11.779,0,0,0,1.8-1.019l.353-.235a12.017,12.017,0,0,0,1.96-1.8,21.477,21.477,0,0,0,2.156-2.745,23.7,23.7,0,0,0,1.372-2.392A35.32,35.32,0,0,0,54.339,45.4a44.264,44.264,0,0,0,.51-6.783h0a44.264,44.264,0,0,0-.51-6.783A33.817,33.817,0,0,0,51.123,21.6c-.2-.353-.392-.745-.588-1.1a30.239,30.239,0,0,0-2.156,5.019A39.531,39.531,0,0,1,50.3,35.282c.078,1.1.118,2.274.118,3.372h0c0,1.1-.039,2.274-.118,3.372a37.377,37.377,0,0,1-2.666,11.841,24.956,24.956,0,0,1-2.156,4.2c-.2.314-.353.627-.588.941-.431.627-.863,1.215-1.333,1.843a20.93,20.93,0,0,1-1.8,1.96,15.932,15.932,0,0,1-2.156,1.8c-.078.039-.118.078-.2.118v.078h0A10.552,10.552,0,0,0,43.478,63.826Zm0-2.98Z" transform="translate(-39.4 -20.5)" fill="#989caa"/>
    </g>
    <g id="Group_19688" data-name="Group 19688" transform="translate(23.565 2.745)">
      <path id="Path_19609" data-name="Path 19609" d="M64.217,55.619a11.779,11.779,0,0,0,1.8-1.019l.353-.235A19.444,19.444,0,0,0,71.863,47.5a35.32,35.32,0,0,0,3.215-10.234,44.263,44.263,0,0,0,.51-6.783h0a44.263,44.263,0,0,0-.51-6.783,33.817,33.817,0,0,0-3.215-10.234A20.025,20.025,0,0,0,66.883,7,21.972,21.972,0,0,0,65,9.313l.588.823A34.328,34.328,0,0,1,71,27.114c.078,1.1.118,2.274.118,3.372S71.079,32.76,71,33.858a34.2,34.2,0,0,1-5.411,16.977c-.431.627-.863,1.215-1.333,1.843a20.93,20.93,0,0,1-1.8,1.96,15.931,15.931,0,0,1-2.156,1.8c-.078.039-.118.078-.2.118v.078h0A11.165,11.165,0,0,0,64.217,55.619Z" transform="translate(-60.1 -7)" fill="#989caa"/>
    </g>
    <g id="Group_19689" data-name="Group 19689" transform="translate(31.759)">
      <path id="Path_19610" data-name="Path 19610" d="M87.273,50.07a19.444,19.444,0,0,0,5.489-6.862,35.319,35.319,0,0,0,3.215-10.234,44.263,44.263,0,0,0,.51-6.783h0a44.263,44.263,0,0,0-.51-6.783A33.817,33.817,0,0,0,92.763,9.175a19.187,19.187,0,0,0-5.489-6.862A10.623,10.623,0,0,0,81.039,0h0V.078A20.493,20.493,0,0,1,86.45,5.842,34.328,34.328,0,0,1,91.861,22.82c.078,1.1.118,2.274.118,3.372s-.039,2.274-.118,3.372A34.2,34.2,0,0,1,86.45,46.541,22.4,22.4,0,0,1,81,52.3v.078h0A11.187,11.187,0,0,0,87.273,50.07Z" transform="translate(-81)" fill="#989caa"/>
    </g>
    <g id="Group_19690" data-name="Group 19690" transform="translate(16.311)">
      <path id="Path_19611" data-name="Path 19611" d="M52.971.98A11.779,11.779,0,0,0,51.167,2l-.353.235A16.257,16.257,0,0,0,48.854,4,21.476,21.476,0,0,0,46.7,6.744a23.7,23.7,0,0,0-1.372,2.392A35.32,35.32,0,0,0,42.11,19.369a44.264,44.264,0,0,0-.51,6.783h0a44.264,44.264,0,0,0,.51,6.783,33.817,33.817,0,0,0,3.215,10.234c.2.353.392.745.588,1.1a30.239,30.239,0,0,0,2.156-5.019,39.531,39.531,0,0,1-1.921-9.763c-.078-1.1-.118-2.274-.118-3.372h0c0-1.1.039-2.274.118-3.372A37.377,37.377,0,0,1,48.814,10.9a30.577,30.577,0,0,1,2.2-4.2c.2-.314.353-.627.588-.941.431-.627.863-1.215,1.333-1.843a20.929,20.929,0,0,1,1.8-1.96,15.93,15.93,0,0,1,2.156-1.8c.078-.039.118-.078.2-.118V0h0A10.915,10.915,0,0,0,52.971.98Zm0,2.98Z" transform="translate(-41.6)" fill="#989caa"/>
    </g>
    <g id="Group_19691" data-name="Group 19691" transform="translate(8.155)">
      <path id="Path_19612" data-name="Path 19612" d="M32.171.98A11.779,11.779,0,0,0,30.367,2l-.353.235A20.351,20.351,0,0,0,24.525,9.1,35.32,35.32,0,0,0,21.31,19.33a44.769,44.769,0,0,0-.51,6.822h0a44.263,44.263,0,0,0,.51,6.783,33.817,33.817,0,0,0,3.215,10.234,20.025,20.025,0,0,0,4.98,6.469,21.972,21.972,0,0,0,1.882-2.313L30.8,46.5a34.328,34.328,0,0,1-5.411-16.977c-.078-1.1-.118-2.274-.118-3.372s.039-2.274.118-3.372A34.2,34.2,0,0,1,30.8,5.8c.431-.627.863-1.215,1.333-1.843A20.93,20.93,0,0,1,33.935,2,17.7,17.7,0,0,1,36.052.274c.078-.039.118-.078.2-.118V0h0A10.723,10.723,0,0,0,32.171.98Z" transform="translate(-20.8)" fill="#989caa"/>
    </g>
    <g id="Group_19692" data-name="Group 19692" transform="translate(0)">
      <path id="Path_19613" data-name="Path 19613" d="M9.214,2.274A19.444,19.444,0,0,0,3.725,9.136,35.32,35.32,0,0,0,.51,19.369,44.769,44.769,0,0,0,0,26.192H0a44.263,44.263,0,0,0,.51,6.783A33.817,33.817,0,0,0,3.725,43.208,19.187,19.187,0,0,0,9.214,50.07a11.624,11.624,0,0,0,6.234,2.274h0v-.078A20.631,20.631,0,0,1,10,46.5,34.328,34.328,0,0,1,4.587,29.524c-.078-1.1-.118-2.274-.118-3.372s.039-2.274.118-3.372A34.2,34.2,0,0,1,10,5.8,20.458,20.458,0,0,1,15.448.078V0h0A10.649,10.649,0,0,0,9.214,2.274Z" transform="translate(0)" fill="#989caa"/>
    </g>
    <g id="Group_19693" data-name="Group 19693" transform="translate(19.526 45.6)">
      <path id="Path_19614" data-name="Path 19614" d="M61.651,120.378a21.973,21.973,0,0,0,1.882-2.313l-.588-.823-.588-.941a17.946,17.946,0,0,1-2.156,2.745c.431.471.98.9,1.451,1.333" transform="translate(-56.122 -116.3)" fill="#989caa"/>
      <path id="Path_19615" data-name="Path 19615" d="M72.4,128.4a11.359,11.359,0,0,1-1.8,1.019,10.552,10.552,0,0,0,4.078.98h0v-.078A17.366,17.366,0,0,1,72.4,128.4" transform="translate(-62.445 -123.656)" fill="#989caa"/>
      <path id="Path_19616" data-name="Path 19616" d="M53.133,130.482a3.864,3.864,0,0,1,.667-.078c-.235-.157-.431-.314-.667-.471A16.932,16.932,0,0,1,51.6,128.6a11.36,11.36,0,0,1-1.8,1.019,10.516,10.516,0,0,0,2.666.823,1.913,1.913,0,0,1,.667.039m.745.039v-.078c-.039-.039-.078-.039-.118-.078a3.862,3.862,0,0,1-.667.078,2.8,2.8,0,0,0,.784.078Z" transform="translate(-49.8 -123.777)" fill="#989caa"/>
    </g>
    <path id="Path_19617" data-name="Path 19617" d="M53.682,6.9A21.972,21.972,0,0,0,51.8,9.213l.588.823.588.941a17.946,17.946,0,0,1,2.156-2.745A11.453,11.453,0,0,0,53.682,6.9" transform="translate(-31.49 -4.195)" fill="#989caa"/>
    <path id="Path_19618" data-name="Path 19618" d="M41.674,2.039a11.36,11.36,0,0,1,1.8-1.019A9.942,9.942,0,0,0,39.4,0h0V.078a13.379,13.379,0,0,1,2.274,1.96" transform="translate(-23.952)" fill="#989caa"/>
    <path id="Path_19619" data-name="Path 19619" d="M64.278.98A10.516,10.516,0,0,0,61.612.157a3.863,3.863,0,0,0-.667-.078h0A4.343,4.343,0,0,0,60.2,0h0V.078c.039.039.078.039.118.078h0c.235.157.431.314.667.471A16.931,16.931,0,0,1,62.513,1.96,19.819,19.819,0,0,1,64.278.98" transform="translate(-36.596)" fill="#989caa"/>
  </g>
</svg>
