<svg xmlns="http://www.w3.org/2000/svg" width="103" height="48" viewBox="0 0 103 48">
  <g id="jrc-logo" transform="translate(-16.53 -110.19)">
    <path id="Path_17040" data-name="Path 17040" d="M572.911,139.6v6.682s-.962.023-1.426.023c-5.93,0-11.862.018-17.794,0-11.506-.033-18.862-9.479-17.757-20.553.9-9.058,6.784-13.67,12.891-15.079a17.98,17.98,0,0,1,3.877-.468c6.367-.046,20.166,0,20.166,0s.013,4.3.013,6.6h-19.01a10.653,10.653,0,0,0-10.759,8.987c-.962,6.42,2.007,11.726,7.542,13.345a12.4,12.4,0,0,0,3.342.455c5.8.044,11.6.019,17.4.019Z" transform="translate(-453.381 0)" fill="#96afc0"/>
    <path id="Path_17041" data-name="Path 17041" d="M308.743,146.324l-10.154.006s-.384-.446-.734-.82c-2.555-2.742-5.04-5.549-7.617-8.271a2.736,2.736,0,0,0-1.761-.761c-3.971-.067-7.932-.035-12.013-.035,0-2.165-.018-6.611-.018-6.611h1.367c4.318-.006,8.636.014,12.954-.017a13.024,13.024,0,0,0,2.978-.3c2.835-.69,4.044-2.759,4.464-5.478.59-3.816-.917-6.924-3.977-7.875a10.337,10.337,0,0,0-2.955-.409c-5.892-.037-11.775-.018-17.663-.018h-1.5v-5.482s14.406-.149,21.462.063a11.452,11.452,0,0,1,11.188,11.55,24.818,24.818,0,0,1-.8,6.8c-.884,3.18-3.237,5.272-6.661,6.778C301.059,139.062,308.743,146.324,308.743,146.324Z" transform="translate(-223.137 -0.012)" fill="#ea4d4c"/>
    <path id="Path_17042" data-name="Path 17042" d="M16.53,140.293c4.451,0,8.8.049,13.156-.023a26.924,26.924,0,0,0,5.051-.528c4.173-.874,6.565-3.626,6.65-7.877.128-6.4.06-12.823.076-19.235v-1.65H48.17v1.44c0,6.194.047,12.389-.029,18.582a24.837,24.837,0,0,1-.647,5.3c-1.21,5.2-4.571,8.353-9.681,9.727-3.255.875-21.283.815-21.283.815Z" transform="translate(0 -0.689)" fill="#96afc0"/>
    <path id="Path_17043" data-name="Path 17043" d="M16.83,439.7v-.9a4.392,4.392,0,0,0,1.757.494,1.244,1.244,0,0,0,.847-.279.917.917,0,0,0,.321-.728.966.966,0,0,0-.214-.625,2.774,2.774,0,0,0-.769-.58l-.435-.256a4.121,4.121,0,0,1-1.137-.867,1.457,1.457,0,0,1-.33-.945,1.545,1.545,0,0,1,.529-1.205,1.955,1.955,0,0,1,1.349-.471,5.392,5.392,0,0,1,1.537.243v.818a4.609,4.609,0,0,0-1.488-.392,1.174,1.174,0,0,0-.769.247.769.769,0,0,0-.3.622.8.8,0,0,0,.222.56,3.541,3.541,0,0,0,.811.58l.452.256a3.932,3.932,0,0,1,1.143.879,1.563,1.563,0,0,1,.324.994,1.631,1.631,0,0,1-.606,1.323,2.461,2.461,0,0,1-1.608.5A6.315,6.315,0,0,1,16.83,439.7Z" transform="translate(-0.262 -281.783)" fill="#96afc0"/>
    <path id="Path_17044" data-name="Path 17044" d="M122.112,440.044a2.744,2.744,0,0,1-2.148-.9,4.018,4.018,0,0,1,0-4.824,3.006,3.006,0,0,1,4.3,0,4.023,4.023,0,0,1,0,4.824A2.719,2.719,0,0,1,122.112,440.044Zm0-.67a1.741,1.741,0,0,0,1.472-.7,3.184,3.184,0,0,0,.529-1.952,3.127,3.127,0,0,0-.529-1.939,1.9,1.9,0,0,0-2.946,0,3.162,3.162,0,0,0-.529,1.939,3.2,3.2,0,0,0,.529,1.952,1.738,1.738,0,0,0,1.474.7Z" transform="translate(-89.484 -281.854)" fill="#96afc0"/>
    <path id="Path_17045" data-name="Path 17045" d="M240.52,440.923V434.61h3.528v.67h-2.632V437.4h2.21v.661h-2.21v2.867Z" transform="translate(-195.472 -282.891)" fill="#96afc0"/>
    <path id="Path_17046" data-name="Path 17046" d="M339.03,440.923V435.28h-2.24v-.67h5.38v.67h-2.244v5.644Z" transform="translate(-279.49 -282.891)" fill="#96afc0"/>
    <path id="Path_17047" data-name="Path 17047" d="M446.484,440.923l-1.624-6.313h.863l1.291,4.983,1.193-4.983h.862l1.12,4.917,1.392-4.916h.726l-1.766,6.312h-.9l-1.105-4.854-1.167,4.856Z" transform="translate(-373.809 -282.891)" fill="#96afc0"/>
    <path id="Path_17048" data-name="Path 17048" d="M569.17,440.923l2.5-6.313h.888l2.464,6.313h-.966l-.685-1.745H570.7l-.7,1.745Zm1.784-2.414h2.165l-1.077-2.726Z" transform="translate(-482.289 -282.891)" fill="#96afc0"/>
    <path id="Path_17049" data-name="Path 17049" d="M687.49,440.923V434.61H689.4a2.133,2.133,0,0,1,1.394.4,1.423,1.423,0,0,1,.483,1.166,1.794,1.794,0,0,1-.334,1.069,2.113,2.113,0,0,1-.94.721l2.107,2.956h-1.1l-1.793-2.671h-.834v2.671Zm.888-3.339h.291a2.008,2.008,0,0,0,1.26-.338,1.184,1.184,0,0,0,.433-.985q0-.98-1.419-.981h-.565Z" transform="translate(-585.62 -282.891)" fill="#96afc0"/>
    <path id="Path_17050" data-name="Path 17050" d="M796.09,440.923V434.61h3.528v.67h-2.631v2.026h2.2v.661h-2.2v2.286H799.8v.67Z" transform="translate(-680.309 -282.891)" fill="#96afc0"/>
  </g>
</svg>
