<svg xmlns="http://www.w3.org/2000/svg" width="987.382" height="89.35" viewBox="0 0 987.382 89.35">
  <g id="Group_243" data-name="Group 243" transform="translate(6082 1700)">
    <path id="Path_4777" data-name="Path 4777" d="M495.891,148.758a44.846,44.846,0,0,1,43.947,44.109c-.236,25.323-21.637,44.151-43.256,44.295a44.922,44.922,0,0,1-45.433-44.4c0-.128,0-.256,0-.383a44.871,44.871,0,0,1,44.744-43.616m-.079,73.688a29.6,29.6,0,1,0-30.121-29.377h0a30.209,30.209,0,0,0,30.121,29.377" transform="translate(-6183.489 -1848.184)" fill="#2d4057"/>
    <path id="Path_4779" data-name="Path 4779" d="M158.225,200.781" transform="translate(-6183.489 -1848.184)" fill="#2d4057"/>
    <path id="Path_4780" data-name="Path 4780" d="M432.944,160l-11.677,9.023a16.48,16.48,0,0,0-12.9-5.76,21.806,21.806,0,0,0-8.877.929c-6.538,2.341-8.114,6.736-6.733,12.927a6.2,6.2,0,0,0,3.486,4.426,32.679,32.679,0,0,0,5.947,2.071c2.909.678,5.9.955,8.828,1.62a61.1,61.1,0,0,1,8.089,2.343c13.712,5.224,16.849,19.656,13.964,29.485a24.816,24.816,0,0,1-15.658,17.329c-11.565,4.285-22.808,3.869-33.322-3.124a75.3,75.3,0,0,1-6.323-5.288l11.742-9.112c.6.513,1.1.97,1.637,1.391a20.244,20.244,0,0,0,19.265,3.193,11.194,11.194,0,0,0,7.658-13.548,8.646,8.646,0,0,0-4.878-6.228,64.345,64.345,0,0,0-8.938-3.08c-2.531-.721-5.252-.852-7.716-1.728a51.661,51.661,0,0,1-9.839-4.392,22.037,22.037,0,0,1-9.421-23.675A24.357,24.357,0,0,1,394.671,150.6a38.038,38.038,0,0,1,25.9.455A34.381,34.381,0,0,1,432.944,160" transform="translate(-6183.489 -1848.184)" fill="#2d4057"/>
    <path id="Path_4782" data-name="Path 4782" d="M300.229,214.48l10.995,9.494a42.825,42.825,0,0,1-60.551,1.282c-.146-.14-.292-.282-.436-.424-19.14-18.084-19.081-44.515-1.307-62.669,19.117-19.517,45.344-16.965,62.046-.844l-9.559,9.61-1.95-1.292a36.089,36.089,0,0,0-14.54-6.221,29.493,29.493,0,0,0-34.31,29.991,28.91,28.91,0,0,0,23.044,28.4,27.826,27.826,0,0,0,25.129-6.11c.4-.343.8-.679,1.441-1.217" transform="translate(-6183.489 -1848.184)" fill="#2d4057"/>
    <path id="Path_4785" data-name="Path 4785" d="M123.781,148.369" transform="translate(-6183.489 -1848.184)" fill="#2d4057"/>
    <g id="Group_241" data-name="Group 241" transform="translate(-6183.489 -1848.184)">
      <rect id="Rectangle_4047" data-name="Rectangle 4047" width="59.238" height="14.22" transform="translate(1029.633 222.946)" fill="#2d4057"/>
      <rect id="Rectangle_4048" data-name="Rectangle 4048" width="59.238" height="14.22" transform="translate(1029.633 148.487)" fill="#2d4057"/>
      <rect id="Rectangle_4049" data-name="Rectangle 4049" width="52.773" height="14.22" transform="translate(1029.633 185.716)" fill="#2d4057"/>
    </g>
    <g id="Group_242" data-name="Group 242" transform="translate(-6183.489 -1848.184)">
      <rect id="Rectangle_4044" data-name="Rectangle 4044" width="59.033" height="14.398" transform="translate(560.843 148.369)" fill="#2d4057"/>
      <path id="Path_4792" data-name="Path 4792" d="M560.864,183.3v53.865h14.8V197.749h39.416V183.3Z" fill="#2d4057"/>
    </g>
    <path id="Path_4793" data-name="Path 4793" d="M206.169,172.18a45.594,45.594,0,0,1-.025,5.215,9.877,9.877,0,0,1-9.416,9.326c-.79.059-1.586.041-2.379.041l-40.487.054v14.555l30.768-.041a2.957,2.957,0,0,1,3.1,1.768l19.142,34.436h16.16l-20.1-35.991c.922-.383,1.63-.691,2.349-.976a24.206,24.206,0,0,0,15.05-18.379,37.2,37.2,0,0,0,.018-14.626,21.607,21.607,0,0,0-14.156-16.881,33.758,33.758,0,0,0-12.653-2.31l-39.683,0v14.624l42.373.134C201.617,163.024,206.066,166.794,206.169,172.18Z" transform="translate(-6183.489 -1848.184)" fill="#2d4057"/>
    <path id="Path_4794" data-name="Path 4794" d="M992.338,172a45.6,45.6,0,0,1-.026,5.215,9.878,9.878,0,0,1-9.416,9.326c-.79.059-1.586.041-2.379.041l-40.486.054v14.554l30.767-.041a2.958,2.958,0,0,1,3.1,1.769l19.142,34.436H1009.2l-20.1-35.992c.921-.382,1.63-.69,2.349-.975A24.211,24.211,0,0,0,1006.5,182a37.227,37.227,0,0,0,.018-14.625A21.607,21.607,0,0,0,992.361,150.5a33.755,33.755,0,0,0-12.653-2.31l-39.682,0v14.625l42.373.133C987.785,162.839,992.235,166.61,992.338,172Z" transform="translate(-6183.489 -1848.184)" fill="#2d4057"/>
    <path id="Path_4795" data-name="Path 4795" d="M664.159,237.165h14.8V163.039l24.337-.149V148.515H639.821v14.524h24.337Z" transform="translate(-6183.489 -1848.184)" fill="#2d4057"/>
    <path id="Path_4796" data-name="Path 4796" d="M806.993,202.754c-8.525-17.846-17.049-35.358-25.44-52.9a2.605,2.605,0,0,0-2.35-1.481H763.229l43.766,88.8,44.645-88.8H835.671a2.662,2.662,0,0,0-2.385,1.478Z" transform="translate(-6183.489 -1848.184)" fill="#2d4057"/>
    <path id="Path_4797" data-name="Path 4797" d="M886.447,183.043c8.525,17.846,17.048,35.358,25.439,52.9a2.607,2.607,0,0,0,2.351,1.481H930.21l-43.766-88.8-44.645,88.8h15.97a2.664,2.664,0,0,0,2.385-1.478Z" transform="translate(-6183.489 -1848.184)" fill="#f15a23"/>
    <path id="Path_4798" data-name="Path 4798" d="M740.391,148.369H724.3c5.314,11.444,44.212,86.668,45.941,88.8l.011,0c2.367-4.767,4.665-9.546,7.116-14.246a4.649,4.649,0,0,0-.044-4.712l-34.6-68.4A2.611,2.611,0,0,0,740.391,148.369Z" transform="translate(-6183.489 -1848.184)" fill="#2d4057"/>
    <path id="Path_4799" data-name="Path 4799" d="M119.779,148.369l-.021,37.867c-.041,7.113-.125,14.234-.433,21.345A16.132,16.132,0,0,1,104,222.913c-.847.036-1.2.037-2.508,0v14.251a43.183,43.183,0,0,0,11.377-1.486,25.926,25.926,0,0,0,18.854-16.842,46.462,46.462,0,0,0,2.847-16.531c.058-16.8.017-37.045.016-53.937Z" transform="translate(-6183.489 -1848.184)" fill="#2d4057"/>
  </g>
</svg>
