<svg xmlns="http://www.w3.org/2000/svg" width="102.441" height="58.752" viewBox="0 0 102.441 58.752">
  <g id="mri-software" transform="translate(115.801 -72.1)">
    <path id="Path_19620" data-name="Path 19620" d="M-112.016,525.845a1.6,1.6,0,0,1-.353,1.081,1.66,1.66,0,0,1-1.058.529l1.551,2.256h-.881l-1.41-2.221h-.952v2.221h-.682v-5.417h1.892a2,2,0,0,1,1.4.435,1.472,1.472,0,0,1,.494,1.116Zm-1.939,1.187a1.351,1.351,0,0,0,.928-.294,1.027,1.027,0,0,0,.317-.787,1.017,1.017,0,0,0-.306-.776,1.264,1.264,0,0,0-.881-.294h-1.21v2.15Zm3.96-2.738h3.337v.588h-2.656V526.7h2.5v.576h-2.5v1.857h2.656v.6H-110v-5.44Zm6.592,0h.834l1.821,5.429h-.705l-.458-1.387h-2.162l-.458,1.387h-.717Zm-.505,3.513h1.81l-.893-2.679-.917,2.679Zm5.452,1.328h2.421v.6h-3.1v-5.44h.682v4.841Zm7.133-4.841h3.337v.588h-2.667V526.7h2.5v.576h-2.5v1.857H-88v.6h-3.325v-5.44Zm8.272,1.328c-.094-.529-.494-.8-1.163-.8a1.241,1.241,0,0,0-.834.235.718.718,0,0,0-.294.576.64.64,0,0,0,.188.505,1.587,1.587,0,0,0,.588.306l1.128.388a2.186,2.186,0,0,1,.917.54,1.33,1.33,0,0,1,.341.975,1.318,1.318,0,0,1-.529,1.057,2.239,2.239,0,0,1-1.434.423,2.327,2.327,0,0,1-1.469-.447A1.6,1.6,0,0,1-86.2,528.1h.67a1,1,0,0,0,.376.823,1.563,1.563,0,0,0,.964.282,1.619,1.619,0,0,0,.94-.258.773.773,0,0,0,.341-.623.744.744,0,0,0-.212-.564,1.489,1.489,0,0,0-.623-.341l-.964-.352a3.168,3.168,0,0,1-1.022-.529,1.178,1.178,0,0,1-.341-.9,1.246,1.246,0,0,1,.482-1,2.117,2.117,0,0,1,1.363-.4,1.989,1.989,0,0,1,1.328.388,1.506,1.506,0,0,1,.529,1.034h-.67v-.035Zm1.857-1.328h4.218v.588h-1.774v4.841h-.682v-4.841h-1.774l.012-.588Zm6.7,0h.834l1.821,5.429h-.705L-73,528.336h-2.162l-.458,1.387h-.717Zm-.494,3.513h1.8l-.893-2.679Zm3.6-3.513h4.218v.588h-1.774v4.841h-.682v-4.841h-1.774l.012-.588Zm5.652,0h3.337v.588h-2.656V526.7h2.5v.576h-2.5v1.857h2.656v.6h-3.337v-5.44Zm11.539,1.328c-.094-.529-.494-.8-1.163-.8a1.241,1.241,0,0,0-.834.235.718.718,0,0,0-.294.576.64.64,0,0,0,.188.505,1.587,1.587,0,0,0,.588.306l1.128.388a2.186,2.186,0,0,1,.917.54,1.33,1.33,0,0,1,.341.975,1.318,1.318,0,0,1-.529,1.057,2.239,2.239,0,0,1-1.434.423,2.327,2.327,0,0,1-1.469-.447,1.6,1.6,0,0,1-.588-1.281h.67a1,1,0,0,0,.376.823,1.491,1.491,0,0,0,.964.282,1.619,1.619,0,0,0,.94-.258.773.773,0,0,0,.341-.623.744.744,0,0,0-.212-.564,1.489,1.489,0,0,0-.623-.341l-.964-.352a3.168,3.168,0,0,1-1.022-.529,1.178,1.178,0,0,1-.341-.9,1.246,1.246,0,0,1,.482-1,2.117,2.117,0,0,1,1.363-.4,1.989,1.989,0,0,1,1.328.388,1.506,1.506,0,0,1,.529,1.034h-.67Zm4.583-1.422a2.186,2.186,0,0,1,1.7.729,3.028,3.028,0,0,1,.658,2.1,3.013,3.013,0,0,1-.646,2.092,2.168,2.168,0,0,1-1.7.705,2.169,2.169,0,0,1-1.7-.729,3.013,3.013,0,0,1-.646-2.092,3.013,3.013,0,0,1,.646-2.092,2.152,2.152,0,0,1,1.692-.717Zm0,.611a1.418,1.418,0,0,0-1.2.576,2.625,2.625,0,0,0-.435,1.633,2.565,2.565,0,0,0,.435,1.622,1.462,1.462,0,0,0,1.2.552,1.5,1.5,0,0,0,1.21-.552,2.541,2.541,0,0,0,.447-1.622,2.551,2.551,0,0,0-.447-1.633A1.456,1.456,0,0,0-49.621,524.811Zm4.007-.517h3.3v.588h-2.62v1.8H-42.5v.588h-2.432v2.444h-.682Zm4.406,0h4.218v.588h-1.774v4.841h-.682v-4.841h-1.763Zm5.84,0,1.316,4.512,1.34-3.948h.458l1.328,3.948,1.516-4.512h.752l-1.915,5.429h-.717l-1.175-3.478-1.222,3.478H-34.4l-1.727-5.429Zm9.165,0h.834l1.821,5.429h-.705l-.458-1.387h-2.162l-.458,1.387h-.717l1.845-5.429Zm-.505,3.513h1.8l-.893-2.679Zm8.331-1.962a1.6,1.6,0,0,1-.353,1.081,1.66,1.66,0,0,1-1.058.529l1.551,2.256h-.881l-1.41-2.221h-.952v2.221h-.682v-5.417h1.892a2,2,0,0,1,1.4.435,1.472,1.472,0,0,1,.494,1.116Zm-1.951,1.187a1.351,1.351,0,0,0,.928-.294,1.027,1.027,0,0,0,.317-.787,1.017,1.017,0,0,0-.306-.776,1.264,1.264,0,0,0-.881-.294h-1.2v2.15Zm3.619-2.738h3.337v.588h-2.656V526.7h2.5v.576h-2.5v1.857h2.656v.6h-3.337v-5.44Z" transform="translate(0 -398.976)" fill="#989caa"/>
    <path id="Path_19621" data-name="Path 19621" d="M463.261,141.4a17.371,17.371,0,0,0-14.054,6.592l-.023-.035a16.609,16.609,0,0,0-3.784-3.525v34.405h7.673V159.413c0-6.193,4-10.8,10.176-10.8a9.7,9.7,0,0,1,8.249,4.148v-9.295A16.471,16.471,0,0,0,463.261,141.4Z" transform="translate(-495.256 -61.157)" fill="#989caa"/>
    <path id="Path_19622" data-name="Path 19622" d="M-51.818,159.066v19.153h-7.72V158.8c0-6.193-4-10.81-10.176-10.81S-79.89,152.6-79.89,158.8v19.435h-7.638V158.8c0-6.193-4-10.81-10.176-10.81a9.537,9.537,0,0,0-8.3,4.042,11.654,11.654,0,0,0-1.927,6.663v19.529H-115.6v-34.5a15.99,15.99,0,0,1,3.6,3.525l.129.165a17.626,17.626,0,0,1,14.136-6.71,16.731,16.731,0,0,1,8.249,2.127,15.058,15.058,0,0,1,5.758,5.758.7.7,0,0,1,.047.071l.035-.071a15.486,15.486,0,0,1,13.96-7.791c10.5-.012,17.872,7.932,17.872,18.272Z" transform="translate(-0.176 -60.539)" fill="#989caa"/>
    <circle id="Ellipse_320" data-name="Ellipse 320" cx="4.077" cy="4.077" r="4.077" transform="translate(-21.514 72.1)" fill="#989caa"/>
    <path id="Path_19623" data-name="Path 19623" d="M686.712,173.683V164.8c1.4.952,8.084,5.135,8.084,11.974l.023,2.891-.047,19.8a11.252,11.252,0,0,1-4.289-3.443s-.024-.059-.035-.047c-.141-.188-.282-.364-.423-.564a17.437,17.437,0,0,1-1.8-3.208c-.106-.223-.188-.458-.282-.693a6.927,6.927,0,0,1-.247-.693,18.643,18.643,0,0,1-.588-2.186,19.73,19.73,0,0,1-.411-4.042l.012-10.9Z" transform="translate(-708.202 -81.807)" fill="#989caa"/>
  </g>
</svg>
