<svg xmlns="http://www.w3.org/2000/svg" width="60" height="60" viewBox="0 0 60 60">
  <g id="react" transform="translate(-1060 -2130)">
    <rect id="Rectangle_9484" data-name="Rectangle 9484" width="60" height="60" transform="translate(1060 2130)" fill="none"/>
    <g id="react-1" transform="translate(1057.457 2126.141)">
      <ellipse id="Ellipse_239" data-name="Ellipse 239" cx="5.389" cy="5.389" rx="5.389" ry="5.389" transform="translate(27.155 28.261)" fill="#00d8ff"/>
      <path id="Path_17634" data-name="Path 17634" d="M142.328,1119.527a61.142,61.142,0,0,1,19.331,2.852c6.68,2.313,10.668,5.824,10.668,9.392,0,3.7-4.35,7.454-11.353,9.787a61.4,61.4,0,0,1-18.646,2.566c-7.524,0-14.1-.895-19.029-2.587-6.767-2.326-10.971-6.068-10.971-9.765,0-3.562,3.892-7.054,10.41-9.338A61.314,61.314,0,0,1,142.328,1119.527Zm0,22.019a58.814,58.814,0,0,0,17.84-2.435c6.593-2.2,9.6-5.344,9.6-7.34,0-1.859-2.8-4.828-8.939-6.954a58.559,58.559,0,0,0-18.5-2.712,59.6,59.6,0,0,0-18.747,2.762c-6,2.1-8.69,4.984-8.69,6.9,0,2,2.891,5.144,9.237,7.326C128.789,1140.7,135.083,1141.546,142.328,1141.546Z" transform="translate(-109.783 -1098.123)" fill="#00d8ff"/>
      <path id="Path_17635" data-name="Path 17635" d="M797.168,302.854a5.355,5.355,0,0,1,2.73.681c3.179,1.85,4.232,7.515,2.747,14.783a62.414,62.414,0,0,1-7.08,17.528c-3.744,6.554-7.786,11.84-11.691,15.287-3.879,3.423-7.884,5.387-10.988,5.387a5.6,5.6,0,0,1-2.853-.706c-3.057-1.78-4.116-6.914-2.835-13.735a68.112,68.112,0,0,1,19.33-33.941C790.407,304.73,794.185,302.854,797.168,302.854Zm-24.282,51.088c2.458,0,5.937-1.776,9.307-4.75,3.7-3.263,7.555-8.323,11.16-14.634a59.811,59.811,0,0,0,6.792-16.76c1.4-6.843.19-11.032-1.522-12.029a2.869,2.869,0,0,0-1.454-.337c-2.3,0-5.648,1.738-8.963,4.65a59.051,59.051,0,0,0-11.536,14.76,60.5,60.5,0,0,0-6.962,17.717c-1.18,6.282-.046,10.062,1.6,11.021A3.115,3.115,0,0,0,772.886,353.942Z" transform="translate(-752.467 -295.995)" fill="#00d8ff"/>
      <path id="Path_17636" data-name="Path 17636" d="M797.849,359.678c-2.939,0-6.636-1.8-10.409-5.081a68.117,68.117,0,0,1-19.474-33.853c-1.352-6.974-.332-12.2,2.728-13.991a5.5,5.5,0,0,1,2.811-.7c3.12,0,7.22,2.07,11.247,5.68a61.974,61.974,0,0,1,11.507,14.946c3.758,6.552,6.276,12.728,7.281,17.859,1.384,7.057.274,12.591-2.9,14.442A5.466,5.466,0,0,1,797.849,359.678Zm-24.344-51.049a3.013,3.013,0,0,0-1.532.355c-1.594.931-2.743,4.853-1.5,11.265a59.551,59.551,0,0,0,6.908,17.46,60.163,60.163,0,0,0,11.726,14.934c3.262,2.833,6.448,4.457,8.743,4.457a2.98,2.98,0,0,0,1.516-.354c1.714-1,2.968-5.093,1.67-11.71-.952-4.856-3.367-10.758-6.986-17.068a59.375,59.375,0,0,0-10.993-14.309C779.543,310.509,775.972,308.629,773.505,308.629Z" transform="translate(-753.17 -299.135)" fill="#00d8ff"/>
    </g>
  </g>
</svg>
